<?xml version="1.0" encoding="utf-8"?>
<!-- Generator: Adobe Illustrator 23.0.2, SVG Export Plug-In . SVG Version: 6.00 Build 0)  -->
<svg version="1.1" id="Layer_1" xmlns="http://www.w3.org/2000/svg" xmlns:xlink="http://www.w3.org/1999/xlink" x="0px" y="0px"
	 viewBox="0 0 500 500" style="enable-background:new 0 0 500 500;" xml:space="preserve">
<metadata><?xpacket begin="﻿" id="W5M0MpCehiHzreSzNTczkc9d"?>
<x:xmpmeta xmlns:x="adobe:ns:meta/" x:xmptk="Adobe XMP Core 6.0-c002 79.164352, 2020/01/30-15:50:38        ">
   <rdf:RDF xmlns:rdf="http://www.w3.org/1999/02/22-rdf-syntax-ns#">
      <rdf:Description rdf:about=""
            xmlns:xmpRights="http://ns.adobe.com/xap/1.0/rights/"
            xmlns:dc="http://purl.org/dc/elements/1.1/"
            xmlns:Iptc4xmpCore="http://iptc.org/std/Iptc4xmpCore/1.0/xmlns/"
            xmlns:xmp="http://ns.adobe.com/xap/1.0/"
            xmlns:xmpMM="http://ns.adobe.com/xap/1.0/mm/"
            xmlns:stEvt="http://ns.adobe.com/xap/1.0/sType/ResourceEvent#">
         <xmpRights:Marked>True</xmpRights:Marked>
         <xmpRights:WebStatement>crafthousesvg.com</xmpRights:WebStatement>
         <dc:rights>
            <rdf:Alt>
               <rdf:li xml:lang="x-default">Copyright © 2020 Craft House SVG. All rights reserved.</rdf:li>
            </rdf:Alt>
         </dc:rights>
         <dc:creator>
            <rdf:Seq>
               <rdf:li>Craft House SVG</rdf:li>
            </rdf:Seq>
         </dc:creator>
         <Iptc4xmpCore:CreatorContactInfo>
            <rdf:Description>
               <Iptc4xmpCore:CiUrlWork>crafthousesvg.com</Iptc4xmpCore:CiUrlWork>
            </rdf:Description>
         </Iptc4xmpCore:CreatorContactInfo>
         <xmp:MetadataDate>2020-10-10T16:29:13-07:00</xmp:MetadataDate>
         <xmpMM:InstanceID>xmp.iid:3f0fd318-a320-480f-b94d-cb42f2a26b0d</xmpMM:InstanceID>
         <xmpMM:DocumentID>xmp.did:3f0fd318-a320-480f-b94d-cb42f2a26b0d</xmpMM:DocumentID>
         <xmpMM:OriginalDocumentID>xmp.did:3f0fd318-a320-480f-b94d-cb42f2a26b0d</xmpMM:OriginalDocumentID>
         <xmpMM:History>
            <rdf:Seq>
               <rdf:li>
                  <rdf:Description>
                     <stEvt:action>saved</stEvt:action>
                     <stEvt:instanceID>xmp.iid:3f0fd318-a320-480f-b94d-cb42f2a26b0d</stEvt:instanceID>
                     <stEvt:when>2020-10-10T16:29:13-07:00</stEvt:when>
                     <stEvt:softwareAgent>Adobe Bridge 2020 (Macintosh)</stEvt:softwareAgent>
                     <stEvt:changed>/metadata</stEvt:changed>
                  </rdf:Description>
               </rdf:li>
            </rdf:Seq>
         </xmpMM:History>
      </rdf:Description>
   </rdf:RDF>
</x:xmpmeta>
                                                                                                    
                                                                                                    
                                                                                                    
                                                                                                    
                                                                                                    
                                                                                                    
                                                                                                    
                                                                                                    
                                                                                                    
                                                                                                    
                                                                                                    
                                                                                                    
                                                                                                    
                                                                                                    
                                                                                                    
                                                                                                    
                                                                                                    
                                                                                                    
                                                                                                    
                                                                                                    
                           
<?xpacket end="w"?></metadata>
<style type="text/css">
	.st0{fill:#231F20;}
	.st1{fill:#F6921E;}
	.st2{fill:#8BC53F;}
	.st3{fill:#E6E6E6;}
	.st4{fill:#009245;}
	.st5{fill:#FBB03B;}
	.st6{fill:#FCEE21;}
</style>
<g>
	<path d="M394.87,396.54c-10.96-9.84-39.9-11.13-56.1-12.35c-102.42-7.7-186.11,19.96-200.93,10.37c1.98-4.6,24.7-14.77,32.59-17.53
		c55.95-19.61,180.54-19.03,201.51-40.61c7.67-7.89,0.19-13.87-10.19-17.65c-62.56-22.76-268.86,23.85-250.71,3.93
		c2.81-3.09,3.86-2.9,4.89-3.78c2.11-1.8,1.05-4.95-1.61-5.17c-4.64-0.37-19.05,11.9-9.67,20.17c14.63,12.91,94.65-7.35,130.51-9.79
		c79.38-5.4,150.42,1.24,102.66,13.38c-43.89,11.16-106.89,14.7-149.14,24.36c-72.83,16.65-76.23,45.09-51.92,46.27
		c35.71,1.74,75.75-13.71,158.52-14.22c18.7-0.11,50.56-4.23,77.88,2.79c67.89,17.46-180.51,37.58-187.58,41
		c-3.1,1.5-1.78,5.97,2.52,5.85c7.48-0.2,58.13-7.71,58.14-6.21c0.07,50.33-2.87,52.91,5.85,55.4c18.78,5.37,16.41,6.12,14.51-57.42
		C266.48,431.73,423.93,422.62,394.87,396.54z"/>
	<path d="M174.48,151.78c16.96,4.08,39.58-4.58,90.1-2.67c7.03,0.27,47.09,2.25,49.01,9.02c2.26,7.98-9.25,7.96-6.07,13.34
		c0.95,1.61,2.5,2.16,4.64,1.42c29.99-10.31,16.02-24.01,4.35-27.29c-54.54-15.32-123.32,5.1-133.3,0.4
		c10.12-13.86,63.62-23.12,88.52-40.35c11.11-7.69,14-17.14,1.59-22.62c-16.27-7.19-41.48-5.63-48.36-16.81
		c-1.34-2.18-1.82-6.47,0.1-7.04c0.89-0.26,0.09,0.19,18.59-12.97c1.4-0.99,1.17-0.83,2.34-0.02c2.66,1.84,16.21,11.13,19.24,12.24
		c2.4,0.88,5.54-0.67,3.82-5.52c-2.04-5.74-6.45-18.1-6.63-18.61c0.45-0.29,9.32-5.47,13.35-7.83c4.72-2.76,2.97-6,0.48-6.51
		c-0.94-0.19-0.13-0.14-18.27,0.42c-2.22,0.07-4.62-21.25-11.47-13.85c-1,1.08-2.35,3.67-3.57,6c-7.44,14.17-0.55,8.48-24.12,11.02
		c-3.52,0.38-4.54,3.91-2.24,5.83c1.23,1.02,6.26,3.21,14.19,7.35c-2.03,4.07-2.5,5.45-3.98,6.78
		C179.39,86.1,239.61,81.98,267.77,88c7.95,1.7,8.16,6.52-3.79,11.86c-23.71,10.61-72.76,21.47-92.81,37.89
		C166.64,141.46,166.48,149.86,174.48,151.78z"/>
	<path d="M150.55,241.01c33.43,11.17,145.23-12.74,180.36-2.52c16.09,4.68,3.72,8.94,8.29,13.04c4.79,4.3,7.34-1.57,6.63-7.96
		c-2.95-26.69-120.19-7.36-163.93-9.31c-9.24-0.41-34.5-2.52-26.48-7.19c4.38-2.55,1.44-7.04-2.37-5.46
		C140.76,226.73,141.35,237.94,150.55,241.01z"/>
	<path d="M305.74,307.18c1.34-82.22,1.87-63.26-15.29-44.09c-4.38-5.27-14.22-24.3-14.44-9.91c0,0.11-0.71,51.54-0.41,53.78
		c0.27,2.09,4.08,2.56,4.61-0.34c0.19-1.02,0.4-33.05,0.64-47.3c0.07-4.09,2.26,3.41,7.04,8.1c4.38,4.29,7.23-3.43,13.22-10.92
		c0.8,0.29,0.22-3.8-0.23,50.8C300.84,311.29,305.67,311.38,305.74,307.18z"/>
	<path d="M169.65,219.41c0.28-1.3,0-1.02,0.66-47.18c0.05-3.17,0.69-0.71,4.15,4.42c5.91,8.75,7.65,4.44,14.91-5.95
		c2.67-3.83,1.26-3.78,0.97,49.45c-0.02,3.71,4.8,4.03,4.87-0.27c1.24-79.7,2.74-65.16-15.26-44.05
		c-7.87-8.92-8.9-15.89-12.91-14.86c-1.35,0.34-1.53,2.32-1.56,4.34c-0.02,1.04-0.6,52.63-0.52,53.81
		C165.15,222.02,169.05,222.17,169.65,219.41z"/>
	<path d="M191.81,267.02c8.1-4.59,7.71-10.6,3.83-14.59c-3.31-3.4-14.77-6.71-15.39-2.2c-0.11,0.8-0.83,55.63-0.84,56.77
		c-0.05,4.35,4.85,4.45,4.91,0.1c0.37-27.91,0.09-34.13,0.43-37.48c12.37,6.19,10.74,25.99,11.3,40.79
		c0.11,2.99,4.25,3.07,4.61,0.18c0.16-1.32-0.15-14.21-0.23-16.2C199.32,267.18,187.32,269.57,191.81,267.02z M185.07,264.44
		c-0.36-1.13-0.26-10.12,0.13-11.23C197.3,253.54,194.53,263.93,185.07,264.44z"/>
	<path d="M336.26,308.92c0.64,1.67,3.98,1.9,4.28-0.63c0.89-7.53,1.13-38.09-1.8-49.98c-2.76-11.18-14.37-14.97-17.89-0.87
		c-2.69,10.79-2.94,24.38-2.97,46.18c-0.01,3.93,0.5,5,2.79,4.89c3.43-0.17,1.47-3.5,2.22-20.98c0.8-18.67,0.38-18.69,2.6-18.71
		c9.52-0.07,9.84-0.31,10.12,1.42C336.38,274.89,336.25,308.91,336.26,308.92z M329.6,264.41c-4.61,0-5.09,0.32-4.88-1.42
		c1.51-12.51,7.32-14.59,10,0.29C335.08,265.31,329.59,263.95,329.6,264.41z"/>
	<path d="M146.62,308.26c0.19-0.82,0.42-36.96,0.42-37.08c0.01-2.36,0.44-2.36,1.68-2.36c12.3-0.02,11.52-0.29,11.5,1.36
		c-0.06,8.13-0.61,35.34-0.35,36.55c0.57,2.6,4.16,2.53,4.68-0.02c0.13-0.65,0,2.28,0.81-55.22c0.04-2.72-0.98-3.18-2.42-3.17
		c-2.33,0.03-2.48,1.35-2.5,3.25c-0.13,13.58,0.38,12.72-1.78,12.83c-0.12,0.01-8.16,0.08-11.37-0.23
		c-0.13-1.49-0.01-13.24-0.01-13.24c-0.32-2.86-4.66-2.89-4.75,0.67c0,0.11-0.79,56.24-0.45,57.03
		C143.21,311.17,146.13,310.39,146.62,308.26z"/>
	<path d="M214.52,181.64c10.55,0.14,11.1,0.81,11.93-2.48c4.61-18.42-10.81-23.58-16.08-13.12c-4.48,8.9-6.02,47.12,2.33,54.93
		c4.23,3.96,10.83,2.46,13.89-6.09c0.99-2.76-2.87-4.45-4.36-1.95c-0.11,0.19-1.27,2.97-2.95,4.66c-5.81,5.83-7.69-16.09-7.61-24.42
		C211.77,180.4,211.67,181.6,214.52,181.64z M212.67,175.87c1.29-11.95,8.51-13.82,9.23-4.76c0.45,5.66,0.11,5.77-1.12,5.83
		c-2.64,0.14-3.76-0.12-3.76,0.06C213,177.01,212.52,177.28,212.67,175.87z"/>
	<path d="M290.68,217.77c-2.21-1.26-2.22-3.24-2.9-4.85c-1.52-3.58-8.8,0.54-1.1,7.98c3.18,3.08,10.68,4,13.41-5.24
		c2.54-8.59,1.86-51.31,1.62-52.71c-0.43-2.45-4.46-2.64-4.59,0.45c-0.41,9.46,0.82,11.55-1.57,12.46
		c-12.86,4.93-3.08-14.74-9.14-15.09c-1.71-0.1-2.5,1.07-2.57,2.73c-0.21,4.98-0.89,10.26,1.18,14.3c2.01,3.93,6.52,4.63,10.47,3.08
		c2.13-0.84,1.95-1.55,1.62,14.42C296.93,203.14,297.11,221.45,290.68,217.77z"/>
	<path d="M362.29,278.52c-1.53-3.29-14.14-24.35-5.43-25.75c3.69-0.59,4.26,2.2,5.08,3.4c0.91,1.31,2.54,1.17,3.49,0.33
		c2.28-2.03-0.92-6.88-4.41-7.91c-4.23-1.25-10.66,0.17-11.76,5.44c-2.63,12.62,12.93,26.07,12.45,42.55
		c-0.3,10.54-7.06,10.85-8.93,5.7c-0.45-1.23-0.78-3.59-3.21-3.08c-3.78,0.79-1.11,6.6,1.44,8.95
		C358.99,315.5,374.45,304.59,362.29,278.52z"/>
	<path d="M233.24,305.04c-2.28-1.26-2.46-3.59-2.91-4.56c-1.07-2.34-5.23-1.54-4.4,1.83c2.98,12.09,20.95,11.72,18.53-9.46
		c-2.02-17.69-14.75-27.97-12.16-37.59c0.92-3.41,5.62-3.23,6.91-0.71c0.79,1.55,1.16,2.52,2.44,2.56c4.98,0.16,2.46-7.23-2.54-8.55
		c-4.66-1.23-10.48,0.31-11.68,5.42c-3.01,12.84,15.91,29.62,11.92,47.29C238.75,303.89,235.94,306.53,233.24,305.04z"/>
	<path d="M135.77,301.87c0.53-2.77-3.15-3.69-4.43-1.43c-14,24.71-13.69-59.59-1.45-46.6c0.76,0.81,1.66,2.42,2.62,3
		c1.5,0.91,4.29-0.44,3.18-3.23c-2.87-7.24-13.4-7.98-16.98,1.62c-4.11,11.04-2.84,36.33-1.03,44.42
		C121.33,315.92,134.01,310.98,135.77,301.87z"/>
	<path d="M248.43,172.43c0.46,3.54-0.35,6.46,2.63,6.56c1.47,0.05,2.63-1.01,2.52-3.2c-0.51-10.84-4.11-18.03-12.63-12.22
		c-1.39-4.27-4.99-3.17-5.01,0.39c0,0.11-0.19,54.54,0.04,56.9c0.27,2.73,4.22,2.94,4.68,0.19c0.16-0.97,0.15,1.17-0.01-39.27
		C240.61,169.17,246.75,159.43,248.43,172.43z"/>
	<path d="M272.3,170.77c0.69,5.44-0.09,8.17,2.86,8.23c1.92,0.04,2.71-1.73,2.53-3.21c-0.79-6.43-0.73-9.22-3.12-12.11
		c-1.65-1.99-4.96-3.39-9.5-0.08c-0.57-1.7-0.9-2.89-2.86-2.72c-1.92,0.16-2.21,1.73-2.21,3.64c-0.02,58.74-0.04,55.29,0.1,56.43
		c0.34,2.7,4.28,2.84,4.68,0.03c0.1-0.73,0.04,1.33,0.02-41.51C264.79,169.37,271.05,160.85,272.3,170.77z"/>
	<path d="M268.89,252.98c4-0.14,3.73-4.35,0.22-4.39c-16.93-0.19-16.6-0.19-18.13,0.06c-1.83,0.31-2.36,3.48,0.11,4.1
		c10.32,2.58,7.32-12.9,6.75,50.36c-0.03,3.4-0.67,8.45,3.43,6.92c1.14-0.43,1.31-1.42,1.38-2.42c0.08-1.08,0.59-50.97,0.58-52.22
		C263.2,252.13,263.98,253.14,268.89,252.98z"/>
	<path d="M207.98,307.44c-0.03,1.31,0.25,2.37,3.18,2.41c5.2,0.07,7.15,0.15,8.77-0.35c1.88-0.57,2.08-3.11,0.04-3.86
		c-4.77-1.75-3.87,9.27-2.96-50.02c0.05-3.4-0.18-2.33,2.34-2.66c2.91-0.39,2.58-4.33-0.14-4.38c-9.46-0.17-11.23-0.56-11.24,2.17
		c0,2.36,1.47,2.16,4.19,2.39c0,0.11-0.57,50.72-0.71,52.05C209.69,305.41,208.02,305.28,207.98,307.44z"/>
</g>
</svg>
