<?xml version="1.0" encoding="utf-8"?>
<!-- Generator: Adobe Illustrator 27.5.0, SVG Export Plug-In . SVG Version: 6.00 Build 0)  -->
<svg version="1.1" id="Layer_1" xmlns="http://www.w3.org/2000/svg" xmlns:xlink="http://www.w3.org/1999/xlink" x="0px" y="0px"
	 viewBox="0 0 273.227 172.733" style="enable-background:new 0 0 273.227 172.733;" xml:space="preserve">
<g>
	<path style="fill:#FF8300;" d="M269.09,113.285c-0.522-8.369-6.443-12.9-11.357-14.238c-1.247-0.339-2.533-0.512-3.819-0.512
		c-3.914,0-9.088,1.473-12.683,5.377c-1.023-0.189-2.086-0.285-3.185-0.285c-1.534,0-3.04,0.206-4.507,0.616
		c-2.701-2.681-6.387-4.226-10.276-4.226c-1.03,0-2.373,0.112-3.864,0.519c2.518-6.11,3.848-12.052,4.477-19.714
		c0.631-6.814,0.205-12.604-1.518-20.638c-0.034-0.164-0.072-0.327-0.111-0.487c-0.3-1.192-0.747-2.957-1.205-4.507
		c-1.058-3.581-2.664-6.455-4.774-8.545c-3.975-4.157-8.59-4.78-10.996-4.78c-2.465,0-4.855,0.603-7.051,1.764
		c-1.382-0.593-2.855-0.98-4.377-1.142c-0.733-0.113-1.482-0.17-2.224-0.17c-2.442,0-4.722,0.56-6.813,1.667
		c-2.091-1.132-5.075-2.248-8.853-2.248c-3.872,0-7.096,1.204-9.509,2.431c-1.15-0.229-2.148-0.291-2.891-0.291
		c-1.66,0-3.324,0.297-4.928,0.871c-2.242-1.441-5.614-3.01-10.126-3.01c-3.871,0-7.098,1.205-9.51,2.432
		c-0.122-0.025-0.242-0.047-0.359-0.067c-2.699-2.563-6.33-4.046-10.082-4.046c-0.138,0-0.285,0.002-0.443,0.007
		c-0.304-0.015-0.613-0.023-0.932-0.023c-0.701,0-1.407,0.052-2.104,0.153c-4.059,0.1-7.581,1.472-10.472,4.083
		c-0.498,0.434-0.972,0.907-1.408,1.406c-0.447,0.512-0.858,1.044-1.238,1.601c-1.402,0.296-2.832,0.705-4.222,1.202
		c0.235-0.997,0.52-2.142,0.87-3.515c0.776-2.734,1.17-5.281,1.17-7.574c0-1.355-0.188-2.703-0.562-4.004
		c-0.817-2.854-2.365-5.372-4.49-7.315c-2.89-3.467-7.07-5.444-11.546-5.444c-0.668,0-1.341,0.045-2.005,0.133
		c-3.15,0.208-6.084,1.384-8.724,3.494c-0.063,0.05-0.123,0.1-0.185,0.15c-0.38-0.235-0.771-0.454-1.168-0.653
		c-2.148-1.13-4.545-1.728-6.936-1.728c-1.338,0-2.67,0.185-3.966,0.549c-1.061,0.15-2.11,0.411-3.128,0.777
		c-2.74,0.66-5.257,2.082-7.31,4.136c-0.111,0.112-0.221,0.226-0.327,0.339c-4.91,5.255-5.321,11.726-5.321,17.904
		c0,0.649,0.001,1.537-0.01,2.133c-0.092,0.662-0.139,1.333-0.139,2c0,0.863,0.002,1.916,0.007,3.046
		c-0.269,0.277-0.529,0.567-0.779,0.867c-3.361,3.77-4.775,8.93-3.792,13.845c0.598,3.407,2.316,6.356,5.024,8.657
		c-0.01,1.335-0.054,3.241-0.138,6.43c-1.892-0.845-3.956-1.295-6.089-1.295c-0.668,0-1.34,0.045-2.004,0.134
		c-3.155,0.208-6.091,1.385-8.731,3.499c-0.06,0.047-0.118,0.096-0.178,0.145c-0.386-0.239-0.781-0.46-1.186-0.662
		c-2.145-1.125-4.534-1.718-6.919-1.718c-1.338,0-2.669,0.184-3.963,0.547c-1.061,0.151-2.107,0.41-3.125,0.775
		c-2.741,0.659-5.262,2.081-7.315,4.138c-0.114,0.116-0.228,0.233-0.326,0.339c-4.911,5.255-5.322,11.727-5.322,17.904
		c0,0.648,0,1.537-0.009,2.134c-0.093,0.662-0.139,1.333-0.139,2.001c0,0.861,0.001,1.914,0.006,3.045
		c-0.267,0.275-0.526,0.564-0.774,0.861c-3.371,3.775-4.786,8.946-3.793,13.87c0.601,3.398,2.317,6.341,5.021,8.638
		c-0.012,1.441-0.062,3.546-0.159,7.212c-0.004,0.131-0.005,0.259-0.005,0.392c0,1.998,0,3.889,0.225,5.764
		c0.011,0.542,0.053,1.088,0.125,1.625c0.009,0.074,1.042,7.473,5.526,11.969c0.299,0.299,0.611,0.585,0.936,0.857
		c2.893,2.571,6.383,3.93,10.1,3.93c4.075,0,7.821-1.614,10.724-4.537c2.461,1.58,5.357,2.451,8.387,2.451
		c1.074,0,2.15-0.111,3.114-0.311l0.107-0.023c0.156-0.015,0.313-0.033,0.469-0.055c2.918-0.087,5.724-1.023,8.366-2.795
		c2.296,0.815,4.72,1.24,7.149,1.24c0.747,0,1.492-0.041,2.235-0.119c0.814,0.962,1.766,1.828,2.865,2.613
		c1.704,1.219,3.687,2.067,5.745,2.457c1.147,0.27,2.309,0.406,3.455,0.406c3.424,0,6.497-1.008,9.376-3.077
		c1.297-0.643,2.5-1.485,3.563-2.493c2.562-0.174,4.693-0.813,6.306-1.296l0.248-0.073c0.306-0.09,1.134-0.334,1.539-0.439
		c0.708-0.012,1.415-0.074,2.106-0.188l0.144-0.014c0.526-0.051,1.262-0.121,2.12-0.273c1.779,1.058,3.763,1.766,5.822,2.076
		c1.086,0.17,2.129,0.253,3.19,0.253c3.164,0,5.755-0.778,7.612-1.336l0.262-0.077c0.307-0.09,1.14-0.336,1.547-0.441
		c0.707-0.012,1.414-0.074,2.107-0.188l0.143-0.014c0.596-0.057,1.463-0.141,2.473-0.342l0.11-0.005
		c0.648-0.044,1.438-0.095,2.308-0.191c1.59-0.008,2.981-0.059,4.572-0.375c0.832,0.439,1.681,0.818,2.524,1.125
		c2.145,0.828,4.5,1.249,7,1.249c1.529,0,3.082-0.162,4.456-0.459c0.962-0.201,1.918-0.48,2.861-0.838
		c2.219,2.096,4.987,3.414,8.097,3.818c0.823,0.127,1.665,0.191,2.503,0.191c3.801,0,7.35-1.281,10.165-3.602
		c1.38,0.389,2.813,0.589,4.258,0.589c3.435,0,6.524-0.989,9.11-2.888c0.298,0.106,0.595,0.201,0.889,0.287
		c1.723,0.513,3.615,0.774,5.625,0.774c1.23,0,3.116-0.105,5.121-0.607c1.106-0.278,2.209-0.651,3.3-1.113
		c0.838,0.392,1.692,0.714,2.558,0.966c1.701,0.5,3.569,0.754,5.553,0.754c0.804,0,1.888-0.046,3.105-0.218
		c0.014,0.01,0.024,0.019,0.036,0.028c2.753,2.286,6.2,3.546,9.717,3.546c2.681,0,5.313-0.719,7.637-2.084
		c0.879-0.384,1.723-0.857,2.52-1.41c2.674,1.947,5.905,3.063,9.174,3.063c1.467,0,2.94-0.229,4.357-0.672
		c1.667,0.591,3.435,0.897,5.214,0.897c5.807,0,11.661-3.325,14.915-8.476c0.186-0.296,0.36-0.598,0.521-0.898
		c1.229-1.758,2.082-3.656,2.516-5.58c0.802-3.256,0.516-6.613-0.792-9.594v-1.068c0-2.421,0.082-4.95,0.241-7.518l1.201-9.912
		c0.071-0.581,0.107-1.172,0.107-1.756v-1.288C269.045,116.943,269.204,115.115,269.09,113.285z M66.965,108.066
		c-1.401,0.297-2.83,0.705-4.22,1.201c0.225-0.952,0.493-2.039,0.823-3.33c1.195,0.711,2.461,1.244,3.775,1.596
		C67.216,107.708,67.089,107.887,66.965,108.066z"/>
	<path d="M264.249,113.589c-0.363-5.808-4.261-8.901-7.788-9.862c-0.83-0.225-1.688-0.341-2.548-0.341
		c-2.84,0-8.298,1.3-10.738,6.167h0.002c-0.012,0.022-0.021,0.047-0.032,0.07c-1.358-0.695-3.001-1.146-5.099-1.146
		c-2.048,0-4.013,0.516-5.89,1.54c-0.228-0.269-0.464-0.522-0.715-0.762c-0.061-0.073-0.123-0.146-0.186-0.218
		c-1.762-2.543-4.658-4.17-7.993-4.17c-1.036,0-2.936,0.184-4.88,1.302c-0.119,0.053-0.24,0.108-0.358,0.167
		c-3.141,0.871-6.049,3.322-7.014,7.547c-1.299,0.182-2.601,0.524-4.098,1.006c-0.985,0.299-1.989,0.758-2.973,1.297
		c-0.756-0.541-1.53-0.96-2.273-1.276c6.058-3.228,9.505-8.587,11.898-13.196c0.064-0.121,0.125-0.244,0.182-0.369
		c3.082-6.608,4.619-12.686,5.299-20.968c0.582-6.282,0.178-11.668-1.433-19.185c-0.022-0.107-0.047-0.213-0.073-0.319
		c-0.288-1.154-0.722-2.856-1.15-4.308c-0.835-2.83-2.032-5.004-3.58-6.518c-2.73-2.887-5.866-3.331-7.539-3.331
		c-2.491,0-4.797,0.876-6.856,2.604c-1.453-1.112-3.233-1.833-5.198-2.021c-0.52-0.087-1.054-0.131-1.597-0.131
		c-3.041,0-5.222,1.292-6.751,2.667c-1.699-1.324-4.55-3.248-8.915-3.248c-3.739,0-6.831,1.565-8.832,2.742
		c-0.02,0.012-0.039,0.024-0.061,0.036c-1.486-0.546-2.8-0.638-3.507-0.638c-1.946,0-3.828,0.619-5.472,1.652
		c-0.045-0.037-0.083-0.082-0.128-0.118c-1.605-1.284-4.594-3.674-9.454-3.674c-3.738,0-6.829,1.565-8.83,2.742
		c-0.021,0.012-0.04,0.024-0.06,0.036c-1.367-0.502-2.581-0.619-3.318-0.634c-1.836-2.392-4.727-3.825-7.743-3.825
		c-0.143,0-0.305,0.004-0.483,0.013c-0.288-0.019-0.585-0.029-0.892-0.029c-0.565,0-1.13,0.05-1.685,0.147
		c-3.054,0.012-5.564,0.949-7.675,2.869c-0.347,0.299-0.671,0.623-0.972,0.968c-0.749,0.857-1.328,1.763-1.792,2.715
		c-0.654,0.108-1.321,0.245-1.975,0.415c-2.86,0.588-5.947,1.774-8.271,3.167c-0.798-0.979-1.751-1.809-2.855-2.421
		c0.378-2.542,0.898-4.861,1.967-9.045c0.666-2.327,1.003-4.449,1.003-6.309c0-0.903-0.126-1.801-0.374-2.67
		c-0.613-2.142-1.796-3.958-3.346-5.287c-1.919-2.449-4.821-3.957-8.027-3.957c-0.512,0-1.021,0.039-1.521,0.114
		c-2.206,0.111-4.281,0.935-6.18,2.453c-0.447,0.358-0.863,0.756-1.241,1.188c-0.584,0.667-1.097,1.37-1.536,2.105
		c-0.981-1.375-2.276-2.507-3.819-3.271c-0.917-0.488-2.562-1.192-4.719-1.192c-0.754,0-1.799,0.092-2.961,0.46
		c-0.946,0.104-1.866,0.335-2.742,0.673c-1.957,0.418-3.775,1.412-5.26,2.897c-0.076,0.076-0.15,0.153-0.224,0.232
		c-3.713,3.973-4.016,8.959-4.016,14.592c0,0.804,0,1.954-0.018,2.552c-0.087,0.522-0.13,1.051-0.13,1.582
		c0,1.402,0.004,3.311,0.021,5.235c-0.803,0.57-1.451,1.213-1.968,1.845c-2.4,2.652-3.402,6.373-2.7,9.784
		c0.407,2.404,1.739,5.031,5.071,7.058c0.074,1.775,0.04,3.608-0.126,9.84c-0.003,0.085-0.003,0.172-0.003,0.257
		c0,1.963,0,3.775,0.221,5.432v0.03c0,0.429,0.029,0.858,0.086,1.284c0.201,1.507,1.397,6.429,4.158,9.19
		c0.21,0.21,0.431,0.411,0.659,0.601c2.031,1.83,4.364,2.759,6.938,2.759c2.178,0,6.267-0.725,9.193-5.579
		c0.312-0.517,0.572-1.06,0.783-1.62c0.076,0.114,0.153,0.221,0.226,0.322c1.027,1.56,2.442,2.796,4.079,3.625
		c-0.045,0.334-0.094,0.688-0.153,1.08c-0.046,0.311-0.078,0.623-0.095,0.936l-0.206,3.865c-0.471-0.072-0.945-0.119-1.425-0.119
		c-0.144,0-0.306,0.004-0.483,0.014c-0.288-0.02-0.585-0.031-0.892-0.031c-0.567,0-1.132,0.05-1.687,0.148
		c-3.051,0.014-5.559,0.949-7.668,2.864c-0.348,0.3-0.672,0.622-0.974,0.966c-0.752,0.859-1.331,1.77-1.798,2.723
		c-0.653,0.107-1.318,0.244-1.971,0.414c-2.862,0.588-5.949,1.773-8.274,3.168c-0.798-0.978-1.751-1.808-2.855-2.42
		c0.378-2.544,0.899-4.861,1.969-9.045c0.665-2.328,1.002-4.45,1.002-6.312c0-0.903-0.125-1.801-0.374-2.669
		c-0.613-2.143-1.797-3.959-3.347-5.289c-1.919-2.448-4.821-3.954-8.026-3.954c-0.513,0-1.021,0.038-1.522,0.114
		c-2.207,0.111-4.284,0.936-6.182,2.456c-0.446,0.356-0.859,0.752-1.235,1.182c-0.584,0.668-1.097,1.371-1.538,2.107
		c-0.982-1.378-2.282-2.512-3.831-3.275c-0.921-0.489-2.561-1.186-4.708-1.186c-0.754,0-1.798,0.092-2.96,0.459
		c-0.944,0.104-1.864,0.334-2.738,0.67c-1.959,0.418-3.779,1.412-5.265,2.899c-0.076,0.077-0.15,0.153-0.224,0.232
		c-3.714,3.974-4.015,8.959-4.015,14.593c0,0.803,0,1.955-0.019,2.554c-0.085,0.521-0.129,1.05-0.129,1.581
		c0,1.402,0.004,3.31,0.022,5.234c-0.802,0.568-1.448,1.209-1.965,1.84c-2.408,2.656-3.41,6.385-2.701,9.803
		c0.409,2.4,1.742,5.02,5.068,7.043c0.075,1.773,0.04,3.605-0.126,9.84c-0.002,0.086-0.003,0.172-0.003,0.258
		c0,1.963,0,3.776,0.221,5.434v0.029c0,0.43,0.028,0.857,0.085,1.284c0.201,1.504,1.394,6.419,4.15,9.181
		c0.216,0.216,0.442,0.422,0.678,0.617c2.03,1.824,4.36,2.75,6.928,2.75c2.181,0,6.276-0.727,9.2-5.588
		c0.309-0.516,0.568-1.053,0.775-1.611c0.079,0.117,0.155,0.225,0.232,0.327c1.945,2.956,5.271,4.786,8.902,4.786
		c0.744,0,1.487-0.076,2.22-0.229c0.101-0.018,0.201-0.039,0.302-0.061c0.26-0.02,0.518-0.053,0.775-0.092
		c3.325-0.021,5.638-1.672,6.4-2.215c0.298-0.215,0.583-0.443,0.856-0.688c0.254-0.229,0.474-0.469,0.695-0.707
		c2.396,1.311,5.111,2.046,7.957,2.046c1.531,0,3.052-0.216,4.526-0.638c0.7,1.53,1.76,2.869,3.396,4.039
		c1.177,0.84,2.52,1.403,3.929,1.655c0.535,0.131,1.396,0.302,2.45,0.302c3.071,0,5.226-1.154,6.874-2.408
		c1.555-0.693,2.884-1.787,3.9-3.148c0.279,0.015,0.558,0.031,0.836,0.031c2.45,0,4.498-0.613,6.258-1.141l0.256-0.075
		c2.161-0.637,2.252-0.637,2.688-0.637c0.567,0,1.132-0.05,1.689-0.15c0.092-0.01,0.187-0.018,0.283-0.027
		c0.608-0.059,1.415-0.134,2.325-0.335c0.126-0.007,0.261-0.017,0.401-0.024c0.358-0.023,0.752-0.049,1.169-0.084
		c1.487,1.176,3.294,1.979,5.29,2.279c0.841,0.131,1.641,0.193,2.445,0.193c2.449,0,4.497-0.613,6.252-1.141l0.253-0.073
		c2.168-0.639,2.259-0.639,2.695-0.639c0.566,0,1.132-0.05,1.689-0.15c0.091-0.01,0.187-0.018,0.282-0.027
		c0.608-0.059,1.415-0.134,2.324-0.335c0.125-0.007,0.261-0.017,0.402-0.024c0.688-0.045,1.506-0.099,2.377-0.203
		c2.223-0.006,3.543-0.068,5.598-0.727c1.007,0.676,2.168,1.303,3.53,1.801c1.586,0.612,3.352,0.923,5.255,0.923
		c1.186,0,2.406-0.127,3.466-0.356c1.81-0.377,3.562-1.129,5.195-2.165c2.097,3.66,5.137,4.807,7.433,5.091
		c0.605,0.097,1.216,0.145,1.823,0.145c3.649,0,6.898-1.686,8.964-4.488c1.771,1.035,3.704,1.475,5.459,1.475
		c3.796,0,6.385-1.613,8.205-3.816c1.006,0.605,2.07,1.099,3.183,1.418c1.27,0.379,2.694,0.572,4.236,0.572
		c0.957,0,2.412-0.077,3.935-0.458c1.571-0.395,3.132-1.036,4.633-1.88c1.167,0.777,2.438,1.391,3.779,1.781
		c1.256,0.369,2.664,0.557,4.185,0.557c0.955,0,2.41-0.077,3.938-0.458c0.229-0.059,0.458-0.142,0.688-0.21
		c0.488,0.597,1.022,1.125,1.586,1.574c1.896,1.588,4.223,2.451,6.648,2.451c1.929,0,3.795-0.545,5.43-1.566
		c0.838-0.338,1.62-0.787,2.348-1.344c0.945-0.581,1.84-1.355,2.586-2.367c2.04,2.969,5.468,4.846,8.967,4.846l0,0
		c1.578,0,3.09-0.389,4.45-1.072c1.54,0.838,3.289,1.297,5.121,1.297c4.183,0,8.427-2.438,10.811-6.211
		c0.175-0.277,0.334-0.559,0.479-0.852c0.72-0.98,1.548-2.413,1.951-4.195c0.633-2.577,0.272-5.152-0.932-7.312v-2.196
		c0-2.559,0.087-5.236,0.258-7.961l1.22-10.056c0.048-0.388,0.072-0.778,0.072-1.169V118.7
		C264.208,116.594,264.341,115.047,264.249,113.589z M39.606,103.646c-0.01-0.281-0.021-0.548-0.032-0.795l1.315,0.299
		C40.453,103.285,40.025,103.45,39.606,103.646z M130.684,115.525c0.004-0.054,0.051-0.939,0.051-0.939
		c0.017-0.33,0.037-0.697,0.056-1.072c0.586,0.279,1.201,0.502,1.842,0.67c-0.159,0.153-0.317,0.295-0.477,0.455
		c-0.545,0.543-1.053,1.107-1.526,1.691C130.648,116.059,130.666,115.787,130.684,115.525z M84.558,42.063l1.319,0.3
		c-0.438,0.134-0.868,0.3-1.286,0.498C84.581,42.579,84.57,42.312,84.558,42.063z M146.291,107.717c-0.27,0-0.54,0.03-0.811,0.041
		c0.39-0.873,0.722-1.83,0.966-2.904c0.071-0.313,0.127-0.629,0.167-0.947c0.217-1.738,0.437-5.568,0.576-10.055
		c0.059-0.582,0.102-1.194,0.129-1.832c1.295-0.297,2.558-0.726,3.785-1.247c-0.014,2.671,0.031,4.074,0.113,5.005
		c0.329,8.043,1.45,11.253,2.152,12.688c0.172,0.383,0.375,0.74,0.584,1.092C151.617,108.363,149.015,107.717,146.291,107.717z
		 M163.194,118.386c-0.479-0.224-0.945-0.394-1.396-0.53c-0.646-1.393-1.433-2.703-2.396-3.883c1.069,0.361,2.211,0.57,3.414,0.57
		c4.295,0,9.462-2.545,11.083-9.695c0.07-0.305,0.125-0.614,0.165-0.926c0.22-1.733,0.439-5.57,0.577-10.071
		c0.059-0.582,0.102-1.193,0.129-1.831c1.87-0.429,3.68-1.117,5.396-2.001c0.457,1.721,1.37,3.29,2.668,4.545
		c0.004,0.006,0.01,0.012,0.013,0.019c-3.94,1.272-6.837,4.772-7.182,9.121c-0.222,2.79,0.641,5.597,2.201,7.94
		c-0.18,0.334-0.357,0.675-0.532,1.041c-0.165,0.348-0.331,0.704-0.498,1.068c-1.271-0.592-2.685-0.921-4.174-0.921
		C168.876,112.833,165.454,114.849,163.194,118.386z"/>
	<g>
		<path style="fill:#FFFFFF;" d="M69.021,89.346v-0.886c-0.221-0.147-0.221-2.288-0.221-4.576c0.221-8.338,0.221-9.224,0-12.619
			c0-1.918-0.147-3.688-0.147-3.836v-0.591l-1.771-0.295c-2.141-0.59-3.173-1.106-3.173-1.624c-0.222-0.368,0-1.254,0.517-1.623
			c0.147-0.368,0.369-0.368,0.886-0.368c0.517,0,2.51,0.368,3.173,0.59l0.369,0.147v-2.804c-0.147-2.878-0.147-9.963-0.147-10.996
			c0.147-0.369,0.147-2.14,0.147-4.133c0-5.092,0.368-6.863,1.402-7.969c0.369-0.369,0.737-0.369,0.886,0l0.221,0.368v-0.368
			c0.147-0.517,1.182-1.034,1.55-0.664c0.369,0.295,0.738,0.147,1.106-0.221c0.295-0.37,0.295-0.37,0.664-0.149
			C75,36.877,75.222,37.763,75,38.647c-0.296,0.739-0.296,0.886-0.147,3.542c0.147,2.657,0.147,7.307,0,8.708
			c-0.148,0.37-0.148,0.886-0.37,4.649c0,0.665,0,1.403-0.146,1.771v3.69l-0.223,3.172h0.739c1.106,0.222,6.716,0,7.97,0
			c0.885-0.147,1.624-0.147,1.992-0.368h1.181l0.591-0.148v-2.656c0.146-1.403,0.146-3.025,0.146-3.542
			c0-0.517,0.148-1.771,0.148-3.026c0.369-4.427,0.886-9.225,1.476-11.513c0.369-1.624,0.886-2.877,1.55-3.912
			c0.222-0.147,0.369-0.885,0.59-1.253c0.148-0.885,0.518-1.55,1.033-2.141c0.37-0.295,0.738-0.516,0.886-0.147
			c0,0,0.147,0,0.369-0.147c0.517-0.369,0.887,0,1.034,0.664c0.221,0.737,0.367,1.108,0.737,0.886c0.147-0.37,0.516,0,0.664,0.516
			c0,0.737-0.148,1.993-0.664,3.763c-1.624,6.347-2.141,9.004-2.656,13.8c-0.37,3.027-0.518,7.454-0.518,7.675
			c0.147,0,1.919-0.59,3.543-1.107c1.181-0.516,2.287-0.516,2.435-0.147c0.222,0.369-0.147,1.254-1.032,1.919
			c-0.739,0.517-1.402,1.107-3.543,1.771c-0.737,0.222-1.255,0.37-1.255,0.37c0,0.147,0.738,10.627,1.033,12.618
			c0.222,1.551,0.738,4.059,1.256,5.979c1.106,3.763,1.253,5.903,0.516,6.567c-0.516,0.369-0.885,0.591-1.181,0.222
			c-0.222,0-0.369,0-0.738,0.147c-0.368,0.222-0.516,0.222-0.737,0c-0.296-0.147-0.296-0.147-0.664,0.222
			c-0.223,0.148-0.369,0.148-0.369,0.148c-0.517,0.148-1.034,0-1.255-0.517c-0.886-1.107-1.771-6.421-2.287-12.768
			c-0.222-0.59-0.222-1.254-0.222-1.476c0-0.148-0.148-1.033-0.148-1.771c0-0.665,0-1.771-0.146-2.066v-3.395
			c0-1.919,0-2.509-0.222-2.509c-0.146,0-0.664,0-1.403,0.222c-2.655,0.369-5.46,0.517-8.115,0.517h-2.732v3.024
			c-0.147,1.551-0.147,3.173-0.147,3.321v4.132c-0.147,7.601-0.516,9.742-1.254,11.66l-0.516,1.772c0,0.367-0.148,0.884-0.148,1.105
			c-0.222,0.368-0.591,0.886-0.886,0.886c-0.221,0-0.369-0.222-0.737-0.518C70.056,92.593,69.17,90.453,69.021,89.346z
			 M70.056,64.919l-0.148-1.623v3.984c0-0.295,0.148-0.59,0.148-0.738C70.277,66.322,70.056,65.806,70.056,64.919z M70.941,44.847
			c0-1.919,0-1.919-0.148-1.919c-0.221,0.147-0.368,0.147-0.368,0.517c-0.147,0.37-0.147,4.059-0.147,6.716v1.771l0.147-1.181
			c0-1.106,0-1.254,0.368-1.624C70.941,48.759,71.162,48.093,70.941,44.847z M70.425,71.487c0-0.369-0.147-0.738-0.147-0.738v4.797
			c0.516,3.542,0.664,4.797,0.664,4.649c0,0,0-1.771-0.369-4.133C70.425,73.923,70.425,71.856,70.425,71.487z M72.048,72.152
			c0.148-0.517,0.296-1.551,0.148-1.551c0,0-0.148,0.148-0.148,0.37c0,0.147-0.222,0.294-0.369,0.294v-1.918
			c0-1.624,0-1.771-0.222-1.771c-0.147,0-0.147,0.147-0.147,1.253c0.147,1.403,0,2.141-0.368,2.141v-0.37
			c0-0.221-0.148-0.368-0.148-0.368c0,0.147,0.148,3.542,0.517,6.346v1.107l0.147-1.107c0-0.516,0.222-1.549,0.222-2.436
			C71.826,73.259,71.826,72.373,72.048,72.152z M72.048,50.381c-0.222,0-0.369,0-0.369-0.221c0,0-0.222,0.221-0.222,0.369
			c-0.147,0.886,0,6.568,0.369,9.963c0,0.368,0.222,0.885,0.222,1.401c0,1.035,0.148-5.312,0.148-9.077
			C72.196,50.161,72.196,50.161,72.048,50.381z M71.679,46.101c-0.222-0.147-0.222,1.107,0,1.772c0.147,1.108,0.147,0.738,0-0.517
			V46.101z M71.826,79.826c0.222,0,0.222-0.221,0-0.368V79.826z M71.826,81.081c0.222-0.221,0.222-0.59,0-0.737V81.081z
			 M71.826,82.483c0.222,0,0.222-0.222,0-0.37V82.483z M89.021,51.784c0-0.738,0.221-2.14,0.589-3.396
			c0.296-2.288,0.665-4.944,0.665-5.313c0-0.295,0-0.295-0.147-0.147c-0.369,0.738-1.254,3.912-1.254,4.576v0.59
			c0,0-0.148,0.295-0.148,0.517c-0.222,0.37-0.222,0.37,0.148,0c0-0.369,0.147-0.517,0.368-0.517c0.147,0,0.147,0,0,0.148
			l-0.886,3.396v0.295l0.369-0.295c-0.222,1.032-0.738,2.804-0.738,3.689v1.107l0.148-0.59c0.222-0.147,0.369-0.887,0.591-1.55
			C88.726,53.556,88.874,52.301,89.021,51.784z M88.504,70.381c0-0.665,0-0.886-0.147-0.886v-5.682l-0.222,1.476
			c0,0.664-0.148,1.771,0,2.141c0,0.517,0,0.885-0.148,0.885v2.067c0,2.14,0,2.362,0.148,1.771c0-0.296,0.222-0.517,0.369-0.517
			V70.381z M88.726,74.513c0-0.886-0.222-1.771-0.222-2.14v-0.517l-0.147,0.665c-0.369,1.254-0.369,3.764,0,3.394
			c0-0.221,0.147-0.221,0.147-0.221C88.726,75.915,88.726,75.546,88.726,74.513z M89.61,83.368c0-0.737-0.368-3.763-0.589-5.903
			c-0.147-1.771-0.296-1.18-0.296,1.107c-0.222,2.804,0.148,5.829,0.664,6.051c0,0,0.221,0.517,0.221,1.771
			c0.148,1.402,0.296,2.287,0.518,2.066c0,0,0-1.033-0.222-2.288C89.906,84.919,89.759,83.516,89.61,83.368z M90.275,60.861
			c0.221-0.368,0.516-6.051,0.369-6.199c0,0-0.148,1.034-0.517,2.436c-0.369,2.288-0.369,3.172-0.518,6.051
			c0,3.394-0.221,9.741,0,9.741c0,0,0-1.402,0.148-3.173C89.759,64.919,90.128,61.377,90.275,60.861z M91.161,49.275
			c0.221-1.402,0.738-4.723,1.106-5.83c0.147-0.664,0.147-1.033,0-1.033c-0.221,0-0.221,0.516-0.368,1.402
			c-0.518,3.689-1.624,9.594-1.771,10.258c-0.222,0.369-0.222,1.106-0.222,1.475v0.517l0.222-0.517c0-0.369,0.368-1.623,0.517-2.878
			C90.791,51.637,91.161,50.013,91.161,49.275z M90.275,73.923v2.508c0.221,3.027,0.221,2.879,0.369,2.509
			c0-0.222,0-0.886-0.148-2.656L90.275,73.923z M90.791,82.852c0-1.624-0.146-2.362-0.146-1.106c0,0.886,0,2.139,0.146,2.139V82.852
			z M90.645,87.796c0,0.664,0.146,1.034,0.146,1.034c0.223,0,0.223-0.37,0-0.887C90.791,86.543,90.645,86.543,90.645,87.796z
			 M91.161,84.255c0-0.222,0.221,2.804,0.368,3.542c0.148,0.885,0.148,0.147,0-1.624C91.382,85.14,91.382,84.255,91.161,84.255z
			 M92.268,41.157v0.517c0,0.221,0,0.221,0.147,0c0-0.147,0.147-0.37,0-0.517C92.415,41.009,92.415,41.009,92.268,41.157z"/>
		<path style="fill:#FFFFFF;" d="M122.156,88.461V74.809l0.222-0.739l-0.371,0.517c0,0.37-0.515,1.402-1.032,2.509
			c-0.959,2.14-2.73,5.682-3.395,6.937c-1.623,2.657-3.395,4.206-6.052,5.091c-3.91,1.254-8.116-1.254-9.225-5.683
			c-0.515-1.549-0.515-2.656-0.146-5.313c0.517-4.575,1.402-7.231,3.32-10.257c0.887-1.402,2.879-3.395,4.133-4.28
			c1.402-0.885,3.689-1.771,5.683-2.14c1.771-0.516,4.575-0.664,4.723-0.294h1.255c0.886,0,1.107-0.222,1.107-0.37
			c0-0.221,0.146-0.886,0.368-1.402c0.517-2.361,0.886-3.542,1.401-4.133c0.37-0.296,0.37-0.517,1.402-0.517
			c0.518,0,1.254,0,1.624-0.147c0.665,0,0.665,0,0.886,0.368v0.148l0.147-0.148c0.368-0.59,0.517-0.368,0.368,0.148
			c-0.222,0.516-0.222,0.887,0,0.739c0.37-0.223,0.37,0.517-0.222,8.265c-0.146,1.476-0.294,4.132-0.294,5.903
			c0,1.771-0.221,5.313-0.369,7.822c-0.369,6.715-0.517,10.257-0.517,12.176c0.147,1.623,0,1.992-0.221,2.508
			c0,0.37-0.149,0.738-0.371,0.738c0,0-0.146,0-0.146-0.222c-0.074,0.074-0.221,0.222-0.517,0.369
			c-1.401,1.255-1.623,1.403-2.141,1.403c-0.146,0-0.516-0.147-0.737-0.147C122.524,94.291,122.378,92.888,122.156,88.461z
			 M105.847,69.79c0.369-0.516,0.738-1.033,0.738-1.18l0.147-0.37l-0.368,0.148l-0.665,0.738l-0.518,0.664
			c-0.367,0.222-1.475,2.879-1.475,3.395l0.737-1.033L105.847,69.79z M114.039,83.442c3.318-5.608,7.231-15.422,7.821-19.998
			l0.146-0.516h-0.515c-0.739,0-2.657,0.294-3.912,0.885c-1.255,0.295-3.541,1.771-4.648,2.657
			c-1.034,0.663-2.805,2.435-3.689,3.542c-1.403,1.771-2.657,4.575-3.174,6.715c-1.254,4.797,0,9.077,3.025,10.258
			c0.664,0.368,1.033,0.368,1.919,0C111.75,86.468,113.153,85.065,114.039,83.442z M108.725,65.362
			c0.886-0.886,1.033-1.033,0.518-0.664c-0.886,0.664-1.993,1.771-2.657,2.656l-0.517,0.665l0.885-0.665L108.725,65.362z
			 M109.242,66.248c-0.37,0.222-0.518,0.369-0.518,0.369C108.725,66.838,108.872,66.617,109.242,66.248z M114.924,62.337
			c-0.222,0-0.518,0-1.106,0.221c-0.664,0.149-0.886,0.149-0.886,0.371c0,0.146,0,0.294-0.147,0.294
			c-0.887,0.369-1.623,0.886-2.141,1.623c-0.147,0.517-0.147,0.517,0.738-0.147c0.516-0.369,1.402-0.738,1.771-1.107
			C114.039,63.075,115.071,62.337,114.924,62.337z M116.474,62.042c-0.296,0-0.664,0.147-0.885,0.295l-0.296,0.221l0.664-0.221
			c0.368-0.148,0.737-0.295,0.886-0.295C117.063,61.821,116.843,61.821,116.474,62.042z M127.839,56.138
			c0.221-0.295,0.221-0.664,0.221-0.664l-0.369,0.369c-0.369,0.295-0.369,0.664-0.887,4.575c-0.222,0.885-0.222,1.771-0.222,2.288
			c0.222,0.516,0.222,0.885,0,1.106c-0.146,0.147-0.294,0.664-0.515,2.804c-0.148,2.509-0.148,4.059-0.148,4.059
			c0.148,0,0.148-1.034,0.369-2.435L127.839,56.138z M126.436,76.948c0.146-1.476,0.146-1.476-0.147,0
			c-0.221,1.181-0.369,5.093-0.221,4.945c0,0,0.221-0.887,0.221-1.993C126.288,78.867,126.436,77.465,126.436,76.948z
			 M127.174,74.957c-0.221-0.148-0.592,7.305-0.592,8.191c0.222,0.664,0.222,0.664,0.222,0.147c0-0.147,0.149-2.14,0.37-4.428
			C127.174,76.727,127.321,74.957,127.174,74.957z M128.207,57.245c0,0-0.147,1.034-0.368,2.435
			c-0.148,1.477-0.148,2.657-0.37,2.878c0,0.371,0,0.371,0.222,0.371c0.148,0,0.148-0.371,0.369-0.887
			C128.207,60.049,128.354,57.392,128.207,57.245z"/>
		<path style="fill:#FFFFFF;" d="M133.446,95.103c-0.222-1.772,0-10.258,0-10.848c0-0.148,0.146-2.805,0.146-5.979
			c0.222-3.025,0.222-6.789,0.37-8.191c0.147-2.436,0.738-9.742,0.887-10.258c0-0.516,0.885-1.402,1.253-1.402
			c0.886,0,1.551,3.173,1.919,7.453v1.771c0.221,0,0.368-0.59,0.517-1.254c1.476-3.765,3.764-6.937,6.051-8.709
			c1.254-0.738,2.657-1.402,3.911-1.402c1.256,0,1.919,0.369,3.395,1.549c1.401,1.477,1.549,1.771,2.435,3.248
			c0.885,1.401,1.401,3.172,1.771,4.576c0.369,1.771,0.221,4.943-0.147,6.568c-1.402,5.165-6.198,9.593-11.513,10.478
			c-1.255,0.148-3.246,0-5.534-0.885l-0.886-0.37v1.919c0,0.369-0.148,1.771-0.148,3.395c0,1.624-0.221,3.173-0.221,3.542
			c0,0.37,0,1.624-0.148,2.878c-0.147,4.946-0.369,8.339-0.517,9.519c-0.37,1.626-0.886,2.142-1.624,2.142
			c-0.515,0-0.515-0.147-0.663-0.516C134.11,103.295,133.593,99.014,133.446,95.103z M134.701,92.15v1.032
			c-0.369,0-0.591-0.885-0.738-2.656l-0.148-1.623v1.254c0,1.918,0.148,6.569,0.518,9.372c0.073,1.032,0.296,1.991,0.369,2.36
			c0-0.221,0-1.771,0.148-3.614C134.996,94.291,134.85,93.404,134.701,92.15z M134.996,67.429v-3.911l-0.146,1.77
			c-0.371,3.542-0.518,6.567-0.518,11.586c-0.222,3.837,0,4.575,0,3.173c0.146-1.107,0.369-3.395,0.369-5.313
			C134.85,72.373,134.996,70.307,134.996,67.429z M134.479,90.305c0.223-0.146,0.223-0.368,0-0.368V90.305z M145.99,78.793
			c1.624-0.369,2.88-1.033,3.028-1.401c0.368-0.517,0.885-2.509,1.254-3.764c0.368-1.92,0.517-4.059,0.517-6.567
			c-0.148-2.805-0.148-3.542-1.033-5.461c-0.517-0.886-0.886-1.255-1.403-1.771l-0.885-0.738l-0.738,0.222
			c-2.657,0.516-5.534,4.059-7.454,9.519c-1.033,3.025-1.033,3.764-1.033,6.273l-0.221,2.288l0.368,0.369
			c0.886,0.516,3.691,1.18,5.83,1.033H145.99z M150.641,75.399c-0.222-0.148-0.368,0.222-0.516,0.886
			c-0.369,0.738-0.369,0.738,0,0.59c0,0,0.294-0.369,0.294-0.738C150.641,75.767,150.641,75.399,150.641,75.399z M151.895,65.289
			c0-0.886,0.148-1.77,0.148-1.77c0.146-0.147-0.886-1.771-1.624-2.805l-0.516-0.517l0.222,0.665
			c0.885,1.771,1.18,2.878,1.401,5.018v1.181L151.895,65.289z M150.789,74.735c0-0.222-0.148-0.222-0.148,0.147
			c0,0.222,0.148,0.222,0.148,0V74.735z M153.666,67.65c-0.222-0.369-0.222-0.369-0.369,0.664c-0.369,2.878-0.737,5.903-0.517,5.683
			c0,0,0.295-1.033,0.517-2.289C153.814,69.568,153.814,68.314,153.666,67.65z"/>
		<path style="fill:#FFFFFF;" d="M160.898,95.103c-0.221-1.772,0-10.258,0-10.848c0-0.148,0.147-2.805,0.147-5.979
			c0.222-3.025,0.222-6.789,0.369-8.191c0.148-2.436,0.737-9.742,0.885-10.258c0-0.516,0.886-1.402,1.254-1.402
			c0.885,0,1.551,3.173,1.92,7.453v1.771c0.222,0,0.369-0.59,0.517-1.254c1.478-3.765,3.765-6.937,6.052-8.709
			c1.255-0.738,2.658-1.402,3.911-1.402c1.256,0,1.921,0.369,3.395,1.549c1.402,1.477,1.55,1.771,2.435,3.248
			c0.887,1.401,1.402,3.172,1.773,4.576c0.369,1.771,0.222,4.943-0.147,6.568c-1.404,5.165-6.199,9.593-11.515,10.478
			c-1.254,0.148-3.245,0-5.534-0.885l-0.886-0.37v1.919c0,0.369-0.147,1.771-0.147,3.395c0,1.624-0.222,3.173-0.222,3.542
			c0,0.37,0,1.624-0.148,2.878c-0.146,4.946-0.368,8.339-0.518,9.519c-0.368,1.626-0.885,2.142-1.622,2.142
			c-0.517,0-0.517-0.147-0.664-0.516C161.563,103.295,161.046,99.014,160.898,95.103z M162.152,92.15v1.032
			c-0.368,0-0.59-0.885-0.737-2.656l-0.147-1.623v1.254c0,1.918,0.147,6.569,0.517,9.372c0.073,1.032,0.294,1.991,0.368,2.36
			c0-0.221,0-1.771,0.148-3.614C162.447,94.291,162.3,93.404,162.152,92.15z M162.447,67.429v-3.911l-0.147,1.77
			c-0.368,3.542-0.516,6.567-0.516,11.586c-0.222,3.837,0,4.575,0,3.173c0.147-1.107,0.368-3.395,0.368-5.313
			C162.3,72.373,162.447,70.307,162.447,67.429z M161.932,90.305c0.221-0.146,0.221-0.368,0-0.368V90.305z M173.444,78.793
			c1.624-0.369,2.88-1.033,3.027-1.401c0.37-0.517,0.885-2.509,1.255-3.764c0.369-1.92,0.515-4.059,0.515-6.567
			c-0.145-2.805-0.145-3.542-1.032-5.461c-0.516-0.886-0.885-1.255-1.402-1.771l-0.887-0.738l-0.736,0.222
			c-2.659,0.516-5.535,4.059-7.456,9.519c-1.032,3.025-1.032,3.764-1.032,6.273l-0.222,2.288l0.369,0.369
			c0.885,0.516,3.69,1.18,5.829,1.033H173.444z M178.096,75.399c-0.222-0.148-0.369,0.222-0.518,0.886
			c-0.369,0.738-0.369,0.738,0,0.59c0,0,0.296-0.369,0.296-0.738C178.096,75.767,178.096,75.399,178.096,75.399z M179.348,65.289
			c0-0.886,0.148-1.77,0.148-1.77c0.147-0.147-0.885-1.771-1.622-2.805l-0.518-0.517l0.222,0.665
			c0.885,1.771,1.181,2.878,1.402,5.018v1.181L179.348,65.289z M178.241,74.735c0-0.222-0.145-0.222-0.145,0.147
			c0,0.222,0.145,0.222,0.145,0V74.735z M181.119,67.65c-0.222-0.369-0.222-0.369-0.369,0.664c-0.368,2.878-0.737,5.903-0.516,5.683
			c0,0,0.294-1.033,0.516-2.289C181.267,69.568,181.267,68.314,181.119,67.65z"/>
		<path style="fill:#FFFFFF;" d="M188.5,104.327c1.4,0.147,3.689,0.147,5.018,0c1.772-0.369,4.134-1.401,5.462-2.288
			c0.515-0.518,0.515-0.887,1.548-3.395c4.062-10.111,4.872-12.915,5.168-19.482c0-3.025,0-3.763-0.147-8.855
			c-0.074-1.623-0.222-3.247-0.148-3.542c0.074-1.254-0.147-3.247-0.443-4.428c-0.147-1.106-0.293-1.106-0.367,0
			c0,0.517-0.222,1.55-1.773,9.15c-2.362,12.62-4.354,17.933-7.231,19.704c-1.326,0.737-2.066,0.517-3.543-1.255
			c-0.665-0.516-1.106-1.033-1.106-1.033c-0.222,0-0.369-0.147-0.591-0.517c-0.074-0.37-0.443-0.516-0.443-0.516
			c-0.146-0.222-0.367-0.222-0.367-0.37c0.222-0.221,0.073-0.738-0.074-1.106c-0.296-1.033-0.739-2.805-0.959-4.945
			c-0.443-3.911-0.591-4.944-0.295-9.372c0.147-4.132,0.369-5.903,1.328-12.398c0-0.221,0.367-0.738,0.811-1.475
			c0.811-1.034,1.33-1.551,1.33-1.255c0.148,0,0.148,0.222,0.516,0c0.147,0,0.369,0,0.369,0.222l-0.518,7.6
			c-0.441,7.306-0.441,9.742-0.441,12.767c0.222,4.945,1.033,8.339,2.584,9.962c0.663,0.886,0.959,1.033,1.548,0.664
			c1.255-1.033,3.1-6.346,4.574-14.169c1.847-9.003,3.177-15.423,3.544-16.162c0.074-0.294,0.37-0.663,0.739-1.032
			c0.589-0.517,0.811-0.517,1.254,0l0.368,0.369c0.369,0,1.327,3.69,1.919,6.051c1.328,6.198,1.77,10.774,1.254,16.309
			c-0.591,7.231-1.846,12.176-4.428,17.712c-3.025,5.829-6.125,9.002-10.772,10.254c-1.403,0.37-4.725,0.518-6.422,0.223
			c-1.844-0.294-4.059-4.945-0.663-3.763C187.32,103.958,187.983,104.18,188.5,104.327z M189.681,66.396
			c0.22-3.173,0.441-5.166,0.959-6.937c0.222-1.033,0.222-1.402,0.073-0.738c-0.295,0.369-0.443,0.59-0.443,0.59
			c-0.369,0-1.106,5.682-1.401,10.774c-0.368,3.026-0.368,5.313-0.294,4.428c0-0.148,0.294-1.55,0.516-2.805
			C189.459,70.086,189.533,68.536,189.681,66.396z M189.237,75.989v-2.14l-0.369,1.402c0,0.738-0.074,1.771,0.073,2.288
			l-0.073,1.624c-0.074,0.886,0.369,4.206,0.813,5.683c0.146,0.885,0.737,2.14,0.737,2.14c0.073-0.222-0.074-0.59-0.222-1.255
			C189.533,82.704,189.163,79.532,189.237,75.989z M205.768,86.099l0.221-0.738l-0.221,0.516l-1.105,3.543
			c-0.443,1.771-1.552,4.649-2.289,6.569c-0.887,1.992-1.476,3.541-1.476,3.763c-0.076,0.146,0.369-0.222,0.663-1.107
			C202.594,97.096,205.474,88.387,205.768,86.099z M205.768,89.051c0.294-1.034-0.147-0.886-0.369,0.222
			c0,0.516-0.443,1.772-0.736,2.656c-0.665,2.289-0.37,1.92,0.441-0.737C205.399,90.305,205.695,89.42,205.768,89.051z
			 M206.284,66.026c-0.222-1.033-0.367-1.918-0.516-2.14c0,0.222,0,2.288,0.221,4.649c0.148,5.461,0.148,5.682,0.295,3.691
			C206.653,69.42,206.58,67.798,206.284,66.026z M207.391,77.908c0.074-0.886-0.074-2.141-0.074-2.657
			c0-1.402-0.148-4.796-0.22-4.649c-0.222,0,0,9.078,0.22,9.078L207.391,77.908z"/>
	</g>
	<g>
		<path style="fill:#FFFFFF;" d="M24.037,150.133v-0.885c-0.221-0.148-0.221-2.291-0.221-4.578c0.221-8.34,0.221-9.225,0-12.617
			c0-1.919-0.146-3.688-0.146-3.836v-0.594l-1.772-0.295c-2.141-0.592-3.174-1.106-3.174-1.624c-0.222-0.367,0-1.254,0.517-1.622
			c0.146-0.369,0.368-0.369,0.886-0.369c0.517,0,2.509,0.369,3.173,0.59l0.37,0.147v-2.802c-0.148-2.878-0.148-9.964-0.148-10.996
			c0.148-0.369,0.148-2.145,0.148-4.135c0-5.091,0.367-6.864,1.401-7.97c0.369-0.369,0.737-0.369,0.885,0l0.222,0.368v-0.368
			c0.147-0.517,1.182-1.032,1.55-0.664c0.369,0.295,0.738,0.148,1.106-0.222c0.296-0.368,0.296-0.368,0.665-0.146
			c0.518,0.146,0.738,1.032,0.518,1.917c-0.296,0.739-0.296,0.888-0.148,3.544c0.148,2.656,0.148,7.307,0,8.708
			c-0.148,0.37-0.148,0.887-0.369,4.647c0,0.665,0,1.402-0.147,1.771v3.692l-0.222,3.171h0.738c1.106,0.223,6.716,0,7.97,0
			c0.886-0.147,1.623-0.147,1.992-0.369h1.18l0.592-0.147v-2.654c0.147-1.401,0.147-3.025,0.147-3.545
			c0-0.517,0.147-1.771,0.147-3.025c0.369-4.426,0.885-9.224,1.477-11.511c0.369-1.625,0.885-2.879,1.55-3.914
			c0.221-0.147,0.368-0.885,0.589-1.253c0.147-0.886,0.517-1.55,1.034-2.14c0.368-0.295,0.737-0.516,0.885-0.146
			c0,0,0.147,0,0.369-0.148c0.518-0.369,0.886,0,1.034,0.664c0.221,0.738,0.368,1.106,0.737,0.885c0.148-0.368,0.516,0,0.663,0.517
			c0,0.737-0.148,1.993-0.663,3.763c-1.623,6.346-2.141,9.006-2.657,13.801c-0.368,3.028-0.516,7.453-0.516,7.676
			c0.147,0,1.919-0.59,3.542-1.107c1.18-0.515,2.286-0.515,2.435-0.146c0.221,0.369-0.148,1.254-1.034,1.918
			c-0.736,0.516-1.4,1.107-3.541,1.77c-0.737,0.223-1.254,0.37-1.254,0.37c0,0.147,0.737,10.626,1.032,12.621
			c0.222,1.55,0.739,4.056,1.256,5.976c1.106,3.764,1.253,5.905,0.516,6.568c-0.516,0.369-0.885,0.591-1.181,0.222
			c-0.221,0-0.369,0-0.738,0.148c-0.368,0.222-0.517,0.222-0.737,0c-0.295-0.148-0.295-0.148-0.665,0.222
			c-0.221,0.145-0.369,0.145-0.369,0.145c-0.516,0.148-1.032,0-1.254-0.515c-0.885-1.106-1.771-6.421-2.287-12.766
			c-0.222-0.591-0.222-1.258-0.222-1.48c0-0.148-0.147-1.033-0.147-1.77c0-0.665,0-1.771-0.147-2.064v-3.395
			c0-1.917,0-2.511-0.222-2.511c-0.148,0-0.664,0-1.402,0.223c-2.656,0.371-5.46,0.519-8.117,0.519h-2.73v3.023
			c-0.149,1.55-0.149,3.173-0.149,3.321v4.134c-0.147,7.597-0.516,9.739-1.254,11.659l-0.517,1.77c0,0.369-0.146,0.887-0.146,1.105
			c-0.223,0.37-0.591,0.887-0.887,0.887c-0.222,0-0.369-0.221-0.737-0.517C25.071,153.377,24.185,151.238,24.037,150.133z
			 M25.071,125.704l-0.148-1.622v3.982c0-0.293,0.148-0.589,0.148-0.736C25.293,127.106,25.071,126.591,25.071,125.704z
			 M25.956,105.633c0-1.918,0-1.918-0.147-1.918c-0.221,0.148-0.368,0.148-0.368,0.516c-0.147,0.369-0.147,4.057-0.147,6.717v1.769
			l0.147-1.18c0-1.106,0-1.254,0.368-1.623C25.956,109.545,26.178,108.878,25.956,105.633z M25.44,132.274
			c0-0.369-0.147-0.739-0.147-0.739v4.795c0.516,3.545,0.663,4.799,0.663,4.652c0,0,0-1.77-0.368-4.135
			C25.44,134.709,25.44,132.643,25.44,132.274z M27.064,132.938c0.146-0.518,0.295-1.55,0.146-1.55c0,0-0.146,0.148-0.146,0.37
			c0,0.148-0.223,0.295-0.37,0.295v-1.919c0-1.622,0-1.77-0.221-1.77c-0.148,0-0.148,0.147-0.148,1.254
			c0.148,1.402,0,2.14-0.369,2.14v-0.37c0-0.22-0.147-0.367-0.147-0.367c0,0.148,0.147,3.54,0.517,6.343v1.11l0.148-1.11
			c0-0.516,0.221-1.548,0.221-2.435C26.842,134.044,26.842,133.159,27.064,132.938z M27.064,111.17c-0.223,0-0.37,0-0.37-0.223
			c0,0-0.221,0.223-0.221,0.37c-0.148,0.885,0,6.564,0.368,9.962c0,0.369,0.223,0.885,0.223,1.401c0,1.032,0.146-5.314,0.146-9.077
			C27.211,110.947,27.211,110.947,27.064,111.17z M26.694,106.887c-0.221-0.147-0.221,1.106,0,1.77c0.148,1.11,0.148,0.74,0-0.516
			V106.887z M26.842,140.612c0.223,0,0.223-0.22,0-0.368V140.612z M26.842,141.867c0.223-0.223,0.223-0.59,0-0.738V141.867z
			 M26.842,143.269c0.223,0,0.223-0.222,0-0.37V143.269z M44.037,112.571c0-0.739,0.221-2.141,0.59-3.397
			c0.296-2.287,0.664-4.943,0.664-5.311c0-0.296,0-0.296-0.147-0.148c-0.369,0.737-1.254,3.909-1.254,4.572v0.591
			c0,0-0.147,0.296-0.147,0.519c-0.222,0.37-0.222,0.37,0.147,0c0-0.371,0.148-0.519,0.368-0.519c0.147,0,0.147,0,0,0.147
			l-0.885,3.398v0.293l0.369-0.293c-0.222,1.032-0.739,2.802-0.739,3.688v1.107l0.149-0.592c0.222-0.146,0.369-0.885,0.591-1.549
			C43.742,114.341,43.89,113.087,44.037,112.571z M43.521,131.168c0-0.665,0-0.887-0.147-0.887v-5.684l-0.222,1.477
			c0,0.662-0.149,1.771,0,2.143c0,0.517,0,0.885-0.149,0.885v2.066c0,2.139,0,2.361,0.149,1.77c0-0.295,0.222-0.518,0.369-0.518
			V131.168z M43.742,135.299c0-0.885-0.222-1.77-0.222-2.14v-0.517l-0.147,0.664c-0.37,1.254-0.37,3.763,0,3.393
			c0-0.222,0.147-0.222,0.147-0.222C43.742,136.7,43.742,136.33,43.742,135.299z M44.627,144.153c0-0.737-0.369-3.761-0.59-5.901
			c-0.148-1.773-0.295-1.183-0.295,1.105c-0.222,2.805,0.147,5.83,0.663,6.05c0,0,0.222,0.518,0.222,1.775
			c0.147,1.4,0.296,2.286,0.517,2.065c0,0,0-1.033-0.221-2.291C44.923,145.703,44.774,144.301,44.627,144.153z M45.291,121.648
			c0.221-0.369,0.517-6.053,0.368-6.201c0,0-0.147,1.033-0.516,2.435c-0.369,2.29-0.369,3.175-0.517,6.053
			c0,3.394-0.222,9.739,0,9.739c0,0,0-1.399,0.147-3.171C44.774,125.704,45.144,122.164,45.291,121.648z M46.177,110.063
			c0.222-1.406,0.737-4.726,1.106-5.832c0.147-0.663,0.147-1.032,0-1.032c-0.221,0-0.221,0.517-0.369,1.401
			c-0.516,3.688-1.623,9.594-1.771,10.258c-0.221,0.368-0.221,1.107-0.221,1.475v0.518l0.221-0.518c0-0.367,0.368-1.621,0.516-2.876
			C45.808,112.424,46.177,110.8,46.177,110.063z M45.291,134.709v2.506c0.221,3.029,0.221,2.883,0.368,2.513
			c0-0.222,0-0.885-0.147-2.658L45.291,134.709z M45.808,143.638c0-1.624-0.148-2.36-0.148-1.106c0,0.885,0,2.139,0.148,2.139
			V143.638z M45.659,148.582c0,0.666,0.148,1.035,0.148,1.035c0.221,0,0.221-0.369,0-0.887
			C45.808,147.328,45.659,147.328,45.659,148.582z M46.177,145.04c0-0.222,0.222,2.806,0.369,3.542c0.148,0.887,0.148,0.148,0-1.625
			C46.398,145.925,46.398,145.04,46.177,145.04z M47.283,101.941v0.52c0,0.222,0,0.222,0.147,0c0-0.147,0.147-0.371,0-0.52
			C47.431,101.795,47.431,101.795,47.283,101.941z"/>
		<path style="fill:#FFFFFF;" d="M77.171,149.248v-13.654l0.222-0.738l-0.369,0.517c0,0.37-0.517,1.401-1.032,2.513
			c-0.959,2.139-2.731,5.68-3.394,6.934c-1.625,2.658-3.396,4.207-6.053,5.092c-3.911,1.255-8.118-1.254-9.225-5.684
			c-0.517-1.547-0.517-2.654-0.148-5.311c0.517-4.576,1.401-7.232,3.319-10.256c0.887-1.406,2.881-3.397,4.135-4.284
			c1.401-0.885,3.688-1.769,5.683-2.139c1.769-0.515,4.575-0.663,4.723-0.296h1.254c0.885,0,1.106-0.219,1.106-0.367
			c0-0.222,0.147-0.885,0.369-1.402c0.516-2.364,0.885-3.545,1.4-4.133c0.371-0.297,0.371-0.518,1.404-0.518
			c0.516,0,1.254,0,1.624-0.148c0.664,0,0.664,0,0.886,0.369v0.148l0.147-0.148c0.368-0.59,0.516-0.369,0.368,0.148
			c-0.221,0.516-0.221,0.885,0,0.736c0.369-0.221,0.369,0.518-0.221,8.267c-0.147,1.476-0.295,4.134-0.295,5.905
			c0,1.77-0.222,5.311-0.369,7.822c-0.369,6.713-0.517,10.257-0.517,12.176c0.147,1.622,0,1.992-0.221,2.507
			c0,0.37-0.149,0.739-0.371,0.739c0,0-0.147,0-0.147-0.223c-0.074,0.074-0.221,0.223-0.516,0.37
			c-1.402,1.255-1.626,1.401-2.142,1.401c-0.147,0-0.517-0.146-0.738-0.146C77.54,155.075,77.393,153.674,77.171,149.248z
			 M60.863,130.577c0.369-0.518,0.736-1.032,0.736-1.181l0.148-0.369l-0.369,0.147l-0.664,0.739l-0.518,0.663
			c-0.369,0.222-1.476,2.878-1.476,3.394l0.737-1.033L60.863,130.577z M69.053,144.227c3.321-5.605,7.233-15.421,7.823-19.996
			l0.147-0.518h-0.517c-0.737,0-2.655,0.296-3.909,0.885c-1.256,0.296-3.545,1.771-4.651,2.656
			c-1.032,0.663-2.804,2.438-3.688,3.545c-1.403,1.77-2.658,4.573-3.173,6.712c-1.257,4.8,0,9.077,3.025,10.261
			c0.664,0.369,1.032,0.369,1.918,0C66.767,147.256,68.168,145.851,69.053,144.227z M63.742,126.147
			c0.885-0.885,1.032-1.032,0.516-0.663c-0.885,0.663-1.993,1.77-2.658,2.654l-0.515,0.667l0.885-0.667L63.742,126.147z
			 M64.258,127.032c-0.369,0.222-0.516,0.37-0.516,0.37C63.742,127.623,63.889,127.402,64.258,127.032z M69.938,123.122
			c-0.221,0-0.515,0-1.106,0.222c-0.663,0.147-0.885,0.147-0.885,0.369c0,0.148,0,0.296-0.147,0.296
			c-0.885,0.367-1.623,0.885-2.139,1.622c-0.148,0.517-0.148,0.517,0.736-0.146c0.518-0.369,1.402-0.738,1.771-1.108
			C69.053,123.861,70.088,123.122,69.938,123.122z M71.489,122.828c-0.295,0-0.665,0.148-0.886,0.294l-0.294,0.222l0.663-0.222
			c0.369-0.146,0.737-0.294,0.885-0.294C72.078,122.607,71.857,122.607,71.489,122.828z M82.854,116.924
			c0.222-0.297,0.222-0.666,0.222-0.666l-0.369,0.369c-0.369,0.297-0.369,0.666-0.887,4.578c-0.222,0.885-0.222,1.771-0.222,2.286
			c0.222,0.518,0.222,0.885,0,1.106c-0.147,0.148-0.296,0.665-0.517,2.805c-0.146,2.512-0.146,4.06-0.146,4.06
			c0.146,0,0.146-1.032,0.367-2.434L82.854,116.924z M81.451,137.736c0.147-1.479,0.147-1.479-0.149,0
			c-0.221,1.18-0.367,5.089-0.221,4.943c0,0,0.221-0.887,0.221-1.994C81.303,139.654,81.451,138.252,81.451,137.736z M82.19,135.742
			c-0.221-0.148-0.592,7.305-0.592,8.191c0.222,0.663,0.222,0.663,0.222,0.146c0-0.146,0.149-2.139,0.37-4.425
			C82.19,137.511,82.338,135.742,82.19,135.742z M83.224,118.029c0,0-0.147,1.037-0.369,2.438c-0.147,1.474-0.147,2.654-0.369,2.876
			c0,0.369,0,0.369,0.222,0.369c0.147,0,0.147-0.369,0.369-0.885C83.224,120.836,83.371,118.178,83.224,118.029z"/>
		<path style="fill:#FFFFFF;" d="M88.608,148.363c0.369-0.296,2.731-1.406,4.503-2.069l0.443-0.222l-0.222-1.254
			c-0.295-3.319-0.295-11.145,0-18.375c0.222-3.394,0.074-4.647,0.148-4.795c-0.148-0.223-0.148-0.887,0.073-2.361
			c0-0.147,0.221-2.068,0.369-4.062c0.072-2.139,0.442-5.312,0.664-7.232l0.294-5.532c0.369-2.436,0.442-3.913,0.738-4.061
			l0.369-0.738c0-0.146,0.221-0.516,0.442-0.664c0.148-0.221,0.148-0.221,0.074,0.296c-0.147,0.222-0.147,0.664-0.147,1.181
			c0.147-1.254,0.959-2.361,1.476-2.213c0.369,0.146,0.443,0.885,0.443,1.4c0,0.222,0.294,1.477,0.515,1.106
			c0.298,0.37,0.298,5.979-0.146,9.372c-0.147,0.885-0.295,3.914-0.442,6.717c-0.591,8.561-1.401,21.695-1.401,21.843
			c-0.074,0.737-0.222,4.799-0.074,5.314c0,0.885,0.074,1.771-0.074,1.624c-0.222,0-0.222-0.222-0.295-0.591v-0.294l-0.295,0.516
			c-0.146,1.032-0.221,1.771,0.147,1.771c0.147-0.222,1.845-0.518,2.729-0.739c0.666,0,2.141-0.147,5.167,0
			c1.402,0,6.346-0.147,7.086-0.367c0.146,0,0.664,0,0.886,0.22c0.294,0,0.294,0.147,0.294,0.517
			c-0.368,0.737-1.698,1.77-2.952,2.513c-0.885,0.294-1.034,0.294-3.396,0.294c-1.401,0.221-3.171,0.221-3.91,0.369
			c-0.589,0.222-1.771,0.222-2.509,0.369c-1.994,0-3.175,0.367-5.682,1.106c-2.215,0.663-3.101,0.885-4.504,0.663
			C88.387,149.837,88.092,149.1,88.608,148.363z M94.366,128.364c0.073-1.921,0.147-2.29-0.074-2.29c0,0-0.147-0.223-0.147-0.37
			c-0.148-0.737-0.442,5.316-0.442,8.487l-0.073,1.624c0.073-0.591,0.221-1.328,0.295-2.142
			C93.996,132.053,94.292,129.766,94.366,128.364z M95.62,105.633c0.074-1.181,0.074-2.287-0.074-2.287c0,0-0.295,2.139-0.442,4.795
			c-0.222,2.659-0.368,5.315-0.368,5.83l-0.222,1.255l0.368-1.399c0.369-1.035,0.442-1.624,0.517-3.543L95.62,105.633z
			 M94.882,121.648c-0.221,1.032-0.368,4.056-0.368,3.908c0.147,0,0.222-1.106,0.296-2.507L94.882,121.648z M98.202,106.739
			c0.221-0.37,0.295-0.737,0.074-1.107L98.202,106.739z"/>
		<path style="fill:#FFFFFF;" d="M111.413,148.363c0.369-0.296,2.729-1.406,4.5-2.069l0.442-0.222l-0.222-1.254
			c-0.294-3.319-0.294-11.145,0-18.375c0.222-3.394,0.074-4.647,0.148-4.795c-0.148-0.223-0.148-0.887,0.073-2.361
			c0-0.147,0.222-2.068,0.37-4.062c0.073-2.139,0.442-5.312,0.664-7.232l0.296-5.532c0.368-2.436,0.442-3.913,0.737-4.061
			l0.369-0.738c0-0.146,0.222-0.516,0.442-0.664c0.147-0.221,0.147-0.221,0.074,0.296c-0.147,0.222-0.147,0.664-0.147,1.181
			c0.147-1.254,0.961-2.361,1.477-2.213c0.369,0.146,0.443,0.885,0.443,1.4c0,0.222,0.295,1.477,0.516,1.106
			c0.295,0.37,0.295,5.979-0.147,9.372c-0.147,0.885-0.295,3.914-0.442,6.717c-0.59,8.561-1.402,21.695-1.402,21.843
			c-0.075,0.737-0.223,4.799-0.075,5.314c0,0.885,0.075,1.771-0.073,1.624c-0.222,0-0.222-0.222-0.295-0.591v-0.294l-0.295,0.516
			c-0.148,1.032-0.222,1.771,0.147,1.771c0.147-0.222,1.846-0.518,2.73-0.739c0.665,0,2.14-0.147,5.166,0
			c1.402,0,6.346-0.147,7.083-0.367c0.147,0,0.665,0,0.886,0.22c0.294,0,0.294,0.147,0.294,0.517
			c-0.367,0.737-1.695,1.77-2.949,2.513c-0.886,0.294-1.034,0.294-3.396,0.294c-1.4,0.221-3.173,0.221-3.91,0.369
			c-0.591,0.222-1.771,0.222-2.508,0.369c-1.992,0-3.175,0.367-5.684,1.106c-2.213,0.663-3.099,0.885-4.501,0.663
			C111.192,149.837,110.897,149.1,111.413,148.363z M117.168,128.364c0.074-1.921,0.148-2.29-0.074-2.29c0,0-0.147-0.223-0.147-0.37
			c-0.147-0.737-0.442,5.316-0.442,8.487l-0.074,1.624c0.074-0.591,0.222-1.328,0.296-2.142
			C116.799,132.053,117.094,129.766,117.168,128.364z M118.423,105.633c0.073-1.181,0.073-2.287-0.074-2.287
			c0,0-0.295,2.139-0.441,4.795c-0.222,2.659-0.369,5.315-0.369,5.83l-0.222,1.255l0.369-1.399c0.368-1.035,0.442-1.624,0.517-3.543
			L118.423,105.633z M117.686,121.648c-0.222,1.032-0.369,4.056-0.369,3.908c0.147,0,0.222-1.106,0.295-2.507L117.686,121.648z
			 M121.007,106.739c0.222-0.37,0.296-0.737,0.074-1.107L121.007,106.739z"/>
		<path style="fill:#FFFFFF;" d="M138.493,146.514c-0.886-1.254-1.622-2.654-2.507-5.162c-0.886-2.287-0.886-2.287-0.739-3.394
			c0-1.184,0.591-4.946,0.739-5.61v-0.886c-0.148-0.368-0.148-1.106-0.148-1.844c-0.222-2.954,0.885-5.831,3.174-8.118
			c1.918-1.919,4.059-3.545,5.681-3.914c2.435-0.516,4.946,0.148,6.717,1.995c3.024,2.952,3.909,10.037,2.287,17.341
			c-0.664,3.176-2.141,6.716-3.541,8.707c-1.254,1.922-3.028,3.323-4.799,3.692c-1.033,0.222-2.434,0.222-3.318-0.148
			C140.561,148.656,139.527,147.771,138.493,146.514z M136.501,133.012c-0.146,0-0.146,0-0.146,0.221c0,0.148,0,0.297,0.146,0.148
			V133.012z M149.491,142.973c2.286-4.13,3.319-10.33,2.803-14.535c-0.368-2.512-1.254-4.799-2.287-5.904
			c-1.254-1.402-2.658-1.918-4.65-1.918c-1.548,0.146-2.434,0.516-4.206,1.918c-1.77,1.254-2.51,1.99-3.025,3.245
			c-0.37,0.665-0.37,1.032-0.518,1.919c0,0.519,0.147,1.036,0.147,1.036s0.148-0.147,0.37-0.517
			c0.663-1.037,1.919-2.438,2.805-3.176c0.37-0.369,1.477-0.885,2.141-1.402c1.401-0.517,1.77-0.736,3.172-0.736
			c0.59,0.22,0.737,0.516,0.59,1.254c-0.222,0.885-0.59,1.254-1.623,1.254c-0.369,0.146-0.886,0.146-0.886,0.146
			c-0.736,0.369-2.507,3.396-3.173,5.537l-0.368,1.033h0.368c0.298,0,1.552-0.518,2.288-0.887c0.885-0.516,1.918-1.4,3.393-2.803
			c1.032-1.109,2.438-2.363,2.659-2.363c0.516,0-0.222,1.771-1.106,3.248c-0.668,0.885-3.323,3.541-4.576,4.207
			c-1.106,0.736-2.36,1.252-3.247,1.473c-0.296,0-0.665,0.148-0.665,0.148c0,0.148-0.221,0.885-0.369,1.623
			c-0.146,1.922-0.146,3.324,0.369,5.61l0.369,1.624l0.885,0.736c1.772,1.77,3.689,2.139,5.682,1.033
			C148.013,145.26,148.753,144.523,149.491,142.973z M139.676,127.328c0.59-1.033,0.59-1.033,0.221-0.518
			c-0.737,0.887-2.142,3.029-1.993,3.029c0,0,0.369-0.369,0.59-0.887C138.641,128.586,139.159,127.846,139.676,127.328z
			 M138.788,139.213c0-1.035,0.224-1.924,0.371-2.809c0.222-0.885,0.222-1.402,0-1.402c-0.371,0.148-0.666,3.176-0.519,4.947
			c0,0.516,0.148,0.885,0.148,0.885V139.213z M139.012,140.982c0,0-0.224,0-0.224,0.221c0,0.148,0.224,0.148,0.224,0.148V140.982z
			 M142.555,126.959c0.147-0.295,0.147-0.295-0.369,0l-0.886,1.774c0,0.294,0,0.441-0.075,0.589l0.444-0.589L142.555,126.959z"/>
		<path style="fill:#FFFFFF;" d="M160.412,150.576c-1.032-3.174-1.992-8.563-2.287-13.287c-0.222-3.76-0.368-5.531-0.59-6.934
			c-0.147-0.737-0.147-1.402-0.147-1.622c0-0.517,0.516-1.258,1.032-1.554c0.59-0.221,0.96,0,1.476,1.037
			c1.255,2.508,2.287,7.967,2.804,14.389c0,1.77,0.222,2.802,0.222,3.023l0.663-1.991c1.255-4.28,3.028-9.224,4.061-11.88
			c1.254-3.172,3.247-7.455,3.614-7.971c0.518-0.885,1.035-1.254,1.403-1.254c0.148,0,0.369,0.221,0.369,0.517
			c0,0.368,0,0.737,0.148,1.107c0.369,0.663,1.032,3.319,1.401,4.577c0.22,1.107,0.22,1.77,0.889,5.901
			c0.516,5.093,1.254,9.519,1.402,9.373c0-0.148,0.367-1.035,0.589-2.141c0.296-1.033,0.518-2.14,0.663-2.287
			c0-0.367,0.369-1.254,0.518-2.291c1.771-6.564,4.646-14.535,7.455-20.439c0.736-1.551,1.621-2.656,2.139-2.656
			c0.367,0,0.367,0,0.367,0.369c0,0.369-0.145,0.885-0.367,1.254l-1.254,3.027c-2.438,5.459-4.208,10.774-6.201,18.445l-1.548,5.684
			c-1.254,4.725-1.993,6.201-3.025,6.201c-0.737,0-1.11-0.592-1.406-1.623c0-0.368-0.367-1.037-0.589-1.626
			c-0.296-0.885-1.032-4.058-2.288-10.405c-1.254-7.155-1.032-6.418-1.254-6.049c-1.402,3.393-2.804,7.599-5.98,17.561
			c-0.59,1.921-1.254,3.692-1.476,4.06c-0.294,0.887-1.032,1.255-1.917,1.032C160.929,152.123,160.929,151.978,160.412,150.576z
			 M158.273,130.873c0,0,0,0.515,0.146,1.254c0,0.516,0.222,2.139,0.222,3.393c0.147,1.181,0.147,2.658,0.147,3.323
			c0.221,0.885,0.221,1.106,0.369,0.515c0-0.293,0-1.772-0.148-3.838C158.789,132.863,158.42,130.725,158.273,130.873z
			 M159.674,143.859c0,0-0.146,0-0.146,0.148c0,0.146,0.146,0.367,0.146,0.146V143.859z M160.265,140.834
			c-0.221-2.139-0.369-2.876-0.369-2.876c-0.222,0-0.222-0.147,0,1.991c0.148,1.77,0.369,2.064,0.369,2.064
			c0.147,0,0.147,0,0.147-0.146C160.265,141.867,160.265,141.352,160.265,140.834z M160.044,146.146v0.148
			c0,0.22,0.221,0.737,0.368,1.257c0.148,1.401,0.368,1.254,0-0.148C160.412,146.662,160.265,146.146,160.044,146.146z
			 M160.412,142.236c-0.147,0-0.147,0-0.147,0.148c0,0.222,0,0.369,0.147,0.222V142.236z M171.776,127.18
			c-0.222-0.221-0.222,0.148-0.369,0.296c-0.148,0.589-0.148,0.741,0.369,3.912c0.369,1.771,0.664,3.541,0.886,3.911
			c0.148-0.37,0-1.918-0.222-3.541C172.145,128.364,171.776,127.18,171.776,127.18z M174.064,142.605c0-0.222-0.148-0.222-0.148,0
			c0,0.147,0.148,0.367,0.148,0.147V142.605z"/>
		<path style="fill:#FFFFFF;" d="M193.398,147.183c-0.885,0.22-2.286,0.22-3.024,0c-1.032-0.3-2.213-1.185-2.804-2.438
			c-0.368-0.736-1.11-3.172-1.552-4.943c-0.739-4.133,0.222-9.594,2.439-12.252c0.811-1.105,3.686-3.173,4.795-3.392
			c2.729-0.887,3.395-0.887,4.503-0.369c0.959,0.369,1.106,0.885,1.253,2.139c0.148,1.106-0.663,3.027-2.213,4.799
			c-1.257,1.623-3.102,3.023-5.61,4.057l-1.474,0.738c-0.369,0-0.369,1.254-0.074,3.027c0.294,3.689,1.844,5.68,3.909,5.68
			c0.738,0,0.887,0,1.623-0.589c1.107-0.665,1.773-1.327,3.398-3.393c0.147-0.221,1.843,0.221,1.106,2.509
			C197.827,145.113,195.465,146.662,193.398,147.183z M189.193,127.697l0.148-0.369l-0.37,0.221
			c-0.515,0.516-1.476,2.438-1.917,3.913c-0.226,1.032-0.667,3.319-0.74,4.058c0,0.148,0.22-0.369,0.441-1.254
			c0.222-0.885,0.667-2.508,1.258-3.91C188.383,128.953,188.972,127.917,189.193,127.697z M195.686,129.471
			c0.367-0.885,0.589-1.033,0.589-1.922c0.074-0.885-0.148-1.105-0.295-1.254c-0.516-0.369-2.287,0.369-3.615,1.77
			c-1.474,1.258-2.139,2.66-2.509,5.316c-0.22,0.148-0.293,0.516-0.073,0.516c0,0,0.295-0.148,0.96-0.516
			C192.883,132.494,194.726,130.873,195.686,129.471z M192.587,125.557c0.811-0.516,0.443-0.516-0.443-0.146
			c-0.811,0.368-0.959,0.516-1.106,1.033l-0.441,0.736l0.737-0.736L192.587,125.557z"/>
		<path style="fill:#FFFFFF;" d="M209.93,147.183c-0.885,0.22-2.287,0.22-3.024,0c-1.036-0.3-2.216-1.185-2.808-2.438
			c-0.367-0.736-1.106-3.172-1.548-4.943c-0.738-4.133,0.22-9.594,2.433-12.252c0.813-1.105,3.692-3.173,4.799-3.392
			c2.73-0.887,3.394-0.887,4.5-0.369c0.96,0.369,1.11,0.885,1.258,2.139c0.147,1.106-0.667,3.027-2.217,4.799
			c-1.254,1.623-3.098,3.023-5.605,4.057l-1.476,0.738c-0.372,0-0.372,1.254-0.074,3.027c0.296,3.689,1.845,5.68,3.91,5.68
			c0.737,0,0.885,0,1.624-0.589c1.106-0.665,1.77-1.327,3.393-3.393c0.147-0.221,1.848,0.221,1.11,2.509
			C214.355,145.113,211.994,146.662,209.93,147.183z M205.722,127.697l0.147-0.369l-0.369,0.221
			c-0.518,0.516-1.476,2.438-1.917,3.913c-0.222,1.032-0.665,3.319-0.739,4.058c0,0.148,0.222-0.369,0.443-1.254
			c0.222-0.885,0.663-2.508,1.254-3.91C204.911,128.953,205.5,127.917,205.722,127.697z M212.216,129.471
			c0.37-0.885,0.592-1.033,0.592-1.922c0.073-0.885-0.148-1.105-0.296-1.254c-0.518-0.369-2.287,0.369-3.615,1.77
			c-1.476,1.258-2.139,2.66-2.508,5.316c-0.222,0.148-0.296,0.516-0.074,0.516c0,0,0.296-0.148,0.959-0.516
			C209.414,132.494,211.258,130.873,212.216,129.471z M209.118,125.557c0.812-0.516,0.441-0.516-0.443-0.146
			c-0.811,0.368-0.958,0.516-1.106,1.033l-0.442,0.736l0.738-0.736L209.118,125.557z"/>
		<path style="fill:#FFFFFF;" d="M220.334,148.436c0.37-1.034,0.518-1.405,0.148-2.808c-0.518-2.656-0.518-7.082-0.296-9.961
			c0.148-0.887,0.148-1.181,0-1.402c-0.222-0.148,0-5.68,0.148-7.455v-1.4c0,0-0.148-2.141,0-4.574c0-4.282,0-5.167,0.37-5.167
			v1.401c0,0.737,0.147,1.255,0.147,1.255c0.222,0,0.222-0.37,0.222-0.518v-0.737c0.146-0.146,0.146-0.517,0.146-0.664
			c0.151-0.737,0.373-0.885,0.373-0.885c0.148,0,0.148,0,0.148,0.147c0,0.147,0.222,0,0.222-0.147
			c0.146-0.59,0.515-0.59,0.515-0.223c-0.147,0.518,0.148,0.37,0.37-0.146c0.367-0.738,0.515-0.738,0.515-0.221
			c0,0.367,0,0.367,0.37,0.367c0.148,0,0.369,0.223,0.369,0.518c0,0.369,0,0.369,0.294,0.369c0.369-0.146,0.591,0.221,0.591,1.253
			v4.946c0,4.426-0.222,10.109-0.369,11.216c0,0.296,0,1.55-0.222,2.656c0,1.032-0.146,2.29-0.146,2.956
			c-0.369,1.843-0.147,1.843,0.368,0c1.254-2.956,5.975-12.77,7.455-15.204c2.286-3.911,4.425-5.831,5.975-5.831
			c0.737,0,0.737,0,1.622,0.889c1.036,1.18,1.627,2.064,2.143,3.688c0.147,1.033,0.147,1.622,0.147,3.689v20.219
			c0.222,0,0.37-0.148,0.518-0.295l0.737-0.369c0.147,0.148,0,1.553-0.368,2.291l-0.665,0.885l-0.885,0.518
			c-0.222,0.367-0.591,0.515-0.591,0.515c-0.148,0.222-0.889-0.148-1.182-0.663c-0.887-1.254-1.993-4.283-2.361-6.57
			c-0.295-1.77-0.295-6.938,0-8.485c0.368-1.771,0.368-5.165,0.22-6.79c-0.367-1.402-0.515-2.141-1.254-3.174
			c-0.737-0.885-1.032-1.401-1.4-1.401c-0.369,0-2.877,4.206-5.537,10.11c-3.023,5.98-3.541,7.453-4.795,11.66
			c-0.516,2.139-0.663,2.51-0.516,3.396c0,1.032,0,1.032-0.148,1.032c-0.222,0-0.37,0.222-0.518,0.37
			c-0.22,0.219-0.367,0.219-0.737,0.219h-0.369c0,0-0.146,0.148-0.367,0.518c-0.37,0.369-0.667,0.369-1.036,0
			C220.186,150.206,220.186,149.321,220.334,148.436z M220.852,126.811c-0.147,1.48-0.369,5.316-0.147,4.651
			c0-0.222,0.147-1.622,0.147-3.024V126.811z M221.073,143.712c0-0.37,0-1.255-0.222-2.14c0-0.517,0-1.107-0.147-1.623v1.106
			c0,2.065,0.147,3.319,0.369,3.319V143.712z M221.073,119.066c-0.222,0.146-0.222,0.295-0.222,0.515c0,0.147,0,0.147,0.222,0
			V119.066z M220.852,122.607c0.222,0,0.222-0.37,0-0.592V122.607z M221.073,135.002v1.033c0,0.738,0.146,1.996,0.146,2.66v1.254
			l0.151-0.736c0.222-0.518,0-1.182,0-2.439L221.073,135.002z M222.107,120.615c-0.146,0.221-0.516,3.172-0.516,4.647v1.548
			l0.37-0.516c0-0.517,0.146-1.401,0.146-3.173V120.615z M221.74,133.601c0-0.22-0.148,0-0.148,0.147
			c0,0.369,0.148,0.369,0.148,0.369V133.601z M221.962,128.806v-0.667c-0.074,0.226-0.222,0.373-0.222,0.447
			C221.74,128.953,221.74,128.953,221.962,128.806z M238.046,126.811c-0.147-2.287-0.517-3.541-1.18-4.203
			c-0.37-0.37-0.592-0.37-1.106-0.37c-0.665,0.148-0.887,0.148-0.518,0.37c0.369,0,1.402,1.401,1.919,2.286l0.737,3.171
			c0,0.227,0.147,0.373,0.147,0.373V126.811z M239.152,139.949c0-1.033-0.222-1.918-0.222-2.139v-2.809c0-1.621,0-2.654-0.147-2.654
			v2.434c-0.148,1.992,0,3.029,0.147,4.799c0,1.254,0.222,2.139,0.222,2.139V139.949z M241.295,128.291
			c0-1.259-0.369-4.282-0.591-4.504v5.388c0,1.55,0.222,2.804,0.222,2.804s0.147-0.517,0.147-1.254
			C241.295,130.06,241.295,128.953,241.295,128.291z M241.073,134.781c0-1.033,0-2.065-0.147-2.065v2.065
			c0,1.107,0,2.141,0.147,2.141V134.781z M241.073,138.916c0-0.221,0,1.033,0.222,3.689c0.148,1.77,0.148,1.106,0.148-1.254
			C241.295,140.171,241.295,138.916,241.073,138.916z"/>
		<path style="fill:#FFFFFF;" d="M250.668,146.883c0.811-0.295,2.36-0.736,3.023-0.736c0.222,0.148,0.369,0.148,0.222,0.589
			c0,0.147-0.222,0.593-0.443,0.815c-0.441,0.221-0.59,0.813-0.737,1.254c-0.885,1.401-2.73,2.139-3.319,1.401
			C248.822,149.617,249.709,147.771,250.668,146.883z M249.413,139.801c-0.148-4.133-0.148-5.684,0.885-11.662l1.181-11.807
			c0-1.18,0.222-2.213,0.369-2.435c0.222-0.441,1.476-0.811,2.066-0.811c0.811,0.222,0.811,1.032,0.369,5.091v2.068l-1.254,10.331
			c-0.148,2.286-0.296,5.384-0.296,8.855v3.248l-0.885,0.811c-0.591,0.589-1.18,0.811-1.845,0.589
			C249.855,143.859,249.709,142.825,249.413,139.801z"/>
	</g>
	<path style="fill-rule:evenodd;clip-rule:evenodd;fill:#FF8300;" d="M95.181,6.93c0.019-0.244,0.031-0.489,0.052-0.735
		c4.482-3.44,10.449-4.169,17.694-3.224c2.37,0.312,5.17,0.602,7.176,1.488c2.933,1.283,4.981,4.656,8.04,4.01
		c0.665-0.81-0.661-2.159-0.001-2.975c4.375,1.289,3.145,8.41,4.551,12.432c0.421,1.182,1.156,2.286,1.848,3.335
		c1.514,2.298,2.594,4.572,5.702,4.84c-0.323-2.491-1.351-5.459-1.354-7.511c0.792-0.65,1.29,0.63,1.792,1.112
		c0.506,0.481,1.263,0.984,1.76,1.611c0.93,1.146,1.07,2.811,2.749,2.407c2.165-0.523,1.396-5.857,4.925-5.095
		c1.593,4.601-3.86,7.096-2.015,11.226c6.849-0.816,5.611-12.424,9.89-16.851c1.309-1.365,3.372-2.162,4.986-2.878
		c0.104,1.187-0.98,1.697-0.396,2.698c8.898,2.906,16.7-4.042,25.552-2.441c2.586,0.471,5.331,1.571,6.367,4.142
		c-7.214-0.544-11.867,2.405-14.875,7.623c-0.076,1.279,0.9,1.968,0.192,3.235c-3.183-1.04-6.444-0.11-9.365,0.081
		c-1.413,1.525-2.975,4.107-2.772,6.984c-3.589-1.594-9.429-0.3-11.57,1.91c-0.881,0.904-1.176,2.916-2.295,3.061
		c-0.857,0.101-2.066-1.541-3.19-1.958c-2.439-0.899-3.541-0.286-5.662,0.6c-0.244,1.64-0.719,2.961-1.131,4.366
		c-1.093,1.241-2.609,0.649-3.834,1.224c-1.179,0.558-1.857,2.784-3.475,2.234c-0.476-0.642,0.227-1.063,0.133-1.972
		c0.085-0.771-1.145-0.185-0.742-1.289c0.403-0.894,2.283,0.244,2.555-0.8c0.071-3.106-2.7-1.664-4.473-1.554
		c-0.743,1.609-2.831,2.723-4.324,2.426c-0.459-1.133,0.738-1.449,0.995-2.403c0.205-0.794-0.179-1.628,0.171-2.461
		c1.023-2.431,3.791-2.904,5.323-4.818c-2.224-1.902-5.107,0.169-6.948,1.253c-0.241-1.282-0.618-2.418-0.781-3.766
		c-2.256-2.127-7.295-3.866-10.046-2.176c-0.676-7.065-5.297-10.044-11.934-10.943c0.341-0.519,1.076-0.509,1.135-1.407
		C105.357,9.75,101.368,6.293,95.181,6.93z"/>
	<path style="fill-rule:evenodd;clip-rule:evenodd;fill:#FF8300;" d="M248.294,22.623c-0.012-0.15-0.02-0.3-0.032-0.451
		c-2.749-2.11-6.407-2.557-10.851-1.978c-1.453,0.191-3.169,0.37-4.398,0.913c-1.798,0.787-3.057,2.855-4.932,2.459
		c-0.407-0.497,0.405-1.324,0.002-1.825c-2.683,0.79-1.929,5.157-2.791,7.623c-0.26,0.725-0.708,1.402-1.133,2.045
		c-0.929,1.41-1.592,2.803-3.497,2.968c0.199-1.527,0.828-3.348,0.83-4.606c-0.485-0.399-0.79,0.386-1.1,0.682
		c-0.309,0.295-0.772,0.604-1.078,0.988c-0.569,0.703-0.657,1.724-1.686,1.476c-1.328-0.32-0.856-3.591-3.02-3.124
		c-0.977,2.821,2.366,4.351,1.234,6.884c-4.2-0.5-3.44-7.618-6.064-10.333c-0.801-0.837-2.066-1.326-3.058-1.764
		c-0.063,0.728,0.603,1.04,0.243,1.654c-5.455,1.782-10.238-2.479-15.666-1.497c-1.586,0.289-3.27,0.963-3.905,2.54
		c4.424-0.333,7.277,1.475,9.121,4.675c0.047,0.784-0.552,1.206-0.118,1.983c1.952-0.638,3.952-0.068,5.742,0.049
		c0.868,0.935,1.825,2.518,1.7,4.282c2.201-0.978,5.782-0.184,7.095,1.171c0.54,0.554,0.722,1.788,1.407,1.877
		c0.525,0.062,1.268-0.945,1.957-1.201c1.495-0.552,2.172-0.175,3.471,0.367c0.15,1.006,0.442,1.816,0.693,2.678
		c0.671,0.761,1.602,0.397,2.352,0.75c0.724,0.342,1.139,1.708,2.132,1.37c0.291-0.394-0.141-0.651-0.082-1.209
		c-0.053-0.473,0.701-0.113,0.455-0.791c-0.248-0.548-1.4,0.15-1.567-0.491c-0.043-1.904,1.656-1.02,2.743-0.953
		c0.455,0.987,1.735,1.67,2.652,1.488c0.281-0.695-0.454-0.888-0.611-1.473c-0.125-0.488,0.109-0.999-0.104-1.509
		c-0.627-1.49-2.324-1.781-3.264-2.954c1.363-1.167,3.131,0.104,4.261,0.769c0.147-0.787,0.379-1.483,0.479-2.31
		c1.384-1.304,4.474-2.371,6.159-1.334c0.415-4.332,3.249-6.159,7.319-6.71c-0.211-0.318-0.66-0.312-0.695-0.863
		C242.053,24.353,244.499,22.233,248.294,22.623z"/>
	<path style="fill-rule:evenodd;clip-rule:evenodd;fill:#FF8300;" d="M231.124,45.663c0.007-0.092,0.011-0.184,0.019-0.276
		c1.689-1.296,3.935-1.57,6.663-1.214c0.891,0.117,1.945,0.227,2.701,0.56c1.103,0.483,1.876,1.753,3.026,1.509
		c0.25-0.305-0.249-0.813,0-1.12c1.645,0.486,1.184,3.167,1.712,4.682c0.159,0.444,0.436,0.86,0.695,1.255
		c0.57,0.866,0.978,1.721,2.148,1.823c-0.123-0.938-0.51-2.056-0.512-2.829c0.3-0.244,0.487,0.238,0.675,0.42
		c0.191,0.181,0.476,0.37,0.663,0.605c0.351,0.432,0.403,1.059,1.036,0.908c0.814-0.197,0.525-2.206,1.854-1.919
		c0.599,1.732-1.453,2.671-0.758,4.226c2.578-0.307,2.112-4.678,3.723-6.345c0.492-0.514,1.269-0.814,1.877-1.083
		c0.038,0.447-0.369,0.639-0.149,1.017c3.35,1.093,6.286-1.523,9.618-0.919c0.974,0.177,2.009,0.591,2.396,1.56
		c-2.717-0.206-4.467,0.905-5.6,2.87c-0.028,0.481,0.339,0.741,0.073,1.218c-1.199-0.392-2.427-0.042-3.525,0.03
		c-0.532,0.574-1.119,1.546-1.044,2.629c-1.351-0.6-3.548-0.113-4.355,0.719c-0.331,0.34-0.443,1.098-0.864,1.153
		c-0.321,0.038-0.778-0.58-1.201-0.738c-0.918-0.338-1.331-0.107-2.131,0.226c-0.093,0.617-0.27,1.115-0.427,1.644
		c-0.41,0.467-0.98,0.244-1.443,0.46c-0.443,0.21-0.699,1.049-1.307,0.841c-0.179-0.242,0.085-0.4,0.049-0.742
		c0.032-0.291-0.43-0.07-0.278-0.486c0.151-0.336,0.86,0.093,0.962-0.301c0.025-1.169-1.017-0.626-1.684-0.584
		c-0.28,0.605-1.066,1.025-1.63,0.913c-0.172-0.427,0.279-0.545,0.375-0.905c0.078-0.299-0.065-0.613,0.064-0.926
		c0.385-0.915,1.427-1.093,2.005-1.814c-0.838-0.716-1.923,0.063-2.616,0.472c-0.091-0.482-0.233-0.91-0.294-1.418
		c-0.849-0.8-2.747-1.455-3.781-0.818c-0.256-2.66-1.995-3.781-4.492-4.12c0.127-0.196,0.403-0.193,0.427-0.531
		C234.956,46.724,233.454,45.423,231.124,45.663z"/>
	<path style="fill-rule:evenodd;clip-rule:evenodd;fill:#FF8300;" d="M219.608,68.767c0.004-0.07,0.008-0.14,0.014-0.21
		c1.282-0.983,2.985-1.191,5.055-0.921c0.676,0.089,1.476,0.171,2.05,0.424c0.837,0.367,1.423,1.33,2.296,1.146
		c0.189-0.231-0.19-0.617,0-0.85c1.249,0.368,0.898,2.402,1.3,3.551c0.119,0.337,0.329,0.652,0.526,0.952
		c0.434,0.657,0.741,1.306,1.63,1.383c-0.093-0.711-0.385-1.559-0.387-2.146c0.226-0.186,0.367,0.18,0.512,0.318
		c0.144,0.136,0.359,0.28,0.502,0.459c0.267,0.328,0.307,0.803,0.786,0.688c0.617-0.15,0.397-1.673,1.405-1.455
		c0.455,1.314-1.101,2.026-0.573,3.206c1.955-0.234,1.603-3.549,2.822-4.814c0.375-0.389,0.965-0.618,1.425-0.821
		c0.03,0.339-0.28,0.484-0.111,0.771c2.54,0.829,4.768-1.156,7.297-0.697c0.737,0.134,1.521,0.448,1.817,1.182
		c-2.062-0.155-3.39,0.687-4.248,2.178c-0.023,0.365,0.256,0.562,0.056,0.924c-0.91-0.297-1.842-0.031-2.676,0.023
		c-0.403,0.437-0.849,1.173-0.792,1.995c-1.024-0.455-2.691-0.086-3.304,0.546c-0.252,0.257-0.335,0.833-0.655,0.874
		c-0.244,0.028-0.591-0.439-0.911-0.56c-0.697-0.257-1.012-0.081-1.618,0.171c-0.07,0.468-0.205,0.846-0.322,1.247
		c-0.313,0.354-0.746,0.185-1.095,0.35c-0.337,0.159-0.53,0.795-0.993,0.637c-0.134-0.184,0.065-0.303,0.038-0.563
		c0.024-0.221-0.328-0.053-0.212-0.369c0.115-0.256,0.653,0.07,0.73-0.228c0.02-0.888-0.771-0.476-1.277-0.444
		c-0.212,0.461-0.809,0.778-1.235,0.693c-0.131-0.324,0.211-0.414,0.284-0.686c0.059-0.227-0.051-0.466,0.05-0.704
		c0.291-0.693,1.081-0.829,1.519-1.376c-0.635-0.543-1.459,0.047-1.984,0.357c-0.069-0.365-0.176-0.69-0.224-1.075
		c-0.643-0.608-2.084-1.104-2.868-0.622c-0.193-2.019-1.514-2.868-3.408-3.126c0.097-0.148,0.308-0.145,0.322-0.402
		C222.515,69.572,221.374,68.585,219.608,68.767z"/>
	<path style="fill-rule:evenodd;clip-rule:evenodd;fill:#FF8300;" d="M237.661,89.976c0.004-0.042,0.006-0.085,0.01-0.128
		c0.78-0.6,1.819-0.726,3.081-0.562c0.413,0.054,0.899,0.105,1.25,0.26c0.51,0.222,0.868,0.81,1.4,0.698
		c0.115-0.141-0.116-0.376,0-0.518c0.762,0.225,0.547,1.464,0.792,2.166c0.073,0.206,0.2,0.398,0.321,0.581
		c0.264,0.4,0.451,0.796,0.993,0.842c-0.057-0.433-0.235-0.95-0.237-1.308c0.139-0.113,0.226,0.111,0.314,0.194
		c0.087,0.083,0.22,0.172,0.307,0.281c0.161,0.2,0.186,0.49,0.479,0.419c0.375-0.091,0.242-1.02,0.856-0.888
		c0.276,0.802-0.671,1.235-0.351,1.955c1.191-0.142,0.978-2.163,1.722-2.935c0.228-0.238,0.587-0.377,0.868-0.501
		c0.019,0.207-0.171,0.295-0.068,0.47c1.548,0.506,2.906-0.705,4.448-0.425c0.451,0.082,0.928,0.274,1.108,0.722
		c-1.256-0.095-2.065,0.419-2.59,1.327c-0.014,0.223,0.157,0.343,0.034,0.564c-0.556-0.182-1.124-0.02-1.632,0.013
		c-0.246,0.266-0.517,0.715-0.482,1.216c-0.626-0.278-1.641-0.052-2.015,0.333c-0.153,0.157-0.204,0.508-0.399,0.533
		c-0.149,0.017-0.359-0.268-0.555-0.341c-0.425-0.156-0.618-0.05-0.987,0.104c-0.042,0.285-0.123,0.516-0.197,0.761
		c-0.189,0.216-0.452,0.113-0.667,0.213c-0.204,0.097-0.323,0.484-0.604,0.389c-0.083-0.111,0.04-0.185,0.023-0.343
		c0.015-0.135-0.199-0.032-0.129-0.225c0.07-0.156,0.397,0.042,0.445-0.14c0.011-0.541-0.472-0.29-0.781-0.271
		c-0.128,0.28-0.492,0.475-0.752,0.423c-0.079-0.198,0.129-0.253,0.175-0.419c0.034-0.139-0.032-0.284,0.028-0.429
		c0.178-0.423,0.661-0.506,0.926-0.838c-0.386-0.331-0.888,0.028-1.208,0.218c-0.044-0.224-0.108-0.421-0.137-0.657
		c-0.392-0.37-1.271-0.672-1.749-0.378c-0.117-1.23-0.922-1.748-2.078-1.906c0.059-0.09,0.188-0.089,0.197-0.245
		C239.435,90.467,238.739,89.865,237.661,89.976z"/>
</g>
</svg>
