<?xml version="1.0" encoding="UTF-8"?>
<svg xmlns="http://www.w3.org/2000/svg" xmlns:xlink="http://www.w3.org/1999/xlink" width="2000" height="2400" viewBox="0 0 2000 2400">
<path fill-rule="evenodd" fill="rgb(100%, 100%, 100%)" fill-opacity="1" d="M 0 2400 L 3264.75 2400 L 3264.75 0 L 0 0 Z M 0 2400 "/>

<path fill-rule="evenodd" fill="rgb(0%, 0%, 0%)" fill-opacity="1" d="M 759.535156 1593.554688 C 570.328125 1778.515625 351.929688 1791.582031 120 1724.960938 L 280.140625 1540.074219 C 351.90625 1539.34375 421.761719 1533.804688 489.652344 1523.285156 C 478.503906 1532.339844 471.382812 1546.152344 471.382812 1561.632812 C 471.382812 1588.90625 493.492188 1611.015625 520.769531 1611.015625 C 548.042969 1611.015625 570.152344 1588.90625 570.152344 1561.632812 C 570.152344 1540.109375 556.382812 1521.804688 537.175781 1515.042969 C 639.152344 1495.4375 736.519531 1464.183594 829.019531 1420.625 C 854.949219 1408.414062 880.492188 1395.230469 905.644531 1381.078125 C 901.742188 1388.148438 899.515625 1396.28125 899.515625 1404.921875 C 899.515625 1432.195312 921.625 1454.308594 948.902344 1454.308594 C 976.175781 1454.308594 998.285156 1432.195312 998.285156 1404.921875 C 998.285156 1377.648438 976.175781 1355.539062 948.902344 1355.539062 L 948.890625 1355.539062 C 1051.160156 1292.21875 1146.671875 1211.988281 1235.019531 1113.851562 L 1383.75 1323.71875 C 1305.988281 1332.039062 1230.691406 1331.460938 1158.628906 1319.148438 L 1162.589844 1323.71875 L 1510.128906 1724.960938 C 1278.199219 1791.582031 1059.800781 1778.515625 870.589844 1593.554688 L 894.496094 2280 L 735.628906 2280 Z M 815.0625 308.660156 L 853.542969 402.820312 L 954.984375 410.308594 L 877.320312 476.011719 L 901.539062 574.800781 L 815.0625 521.238281 L 975.21875 747.238281 C 918.792969 798.449219 858.140625 838.96875 793.5 869.410156 C 708.855469 909.269531 617.277344 931.871094 519.308594 938.578125 L 530.71875 922.480469 L 815.0625 521.238281 L 728.585938 574.800781 L 752.804688 476.011719 L 675.140625 410.308594 L 776.582031 402.820312 Z M 296.757812 1520.886719 L 467.53125 1323.71875 L 471.492188 1319.148438 C 399.4375 1331.460938 324.136719 1332.039062 246.375 1323.71875 L 505.273438 958.390625 C 611.324219 952.910156 710.304688 929.488281 801.566406 886.519531 C 815.4375 879.980469 829.125 873 842.628906 865.570312 C 836.953125 873.609375 833.617188 883.421875 833.617188 894.011719 C 833.617188 921.28125 855.726562 943.390625 883 943.390625 C 910.277344 943.390625 932.386719 921.28125 932.386719 894.011719 C 932.386719 866.730469 910.277344 844.621094 883 844.621094 C 881.246094 844.621094 879.511719 844.71875 877.800781 844.898438 C 915.472656 821.339844 951.632812 794.011719 986.230469 762.78125 L 1099.410156 922.480469 L 1223.820312 1098.039062 C 1102.769531 1233.261719 968.132812 1334.210938 820.949219 1403.519531 C 660.761719 1478.949219 485.578125 1516.941406 296.757812 1520.886719 "/>
</svg>
